# Made in Blockbench 5.0.7
mtllib Anthill.mtl

o mesh
v 0.28125 0.75 -0.34375
v 0.46875 0.0625 0.46875
v 0.46875 0.0625 -0.46875
v -0.34375 0.875 0.46875
v -0.34375 0.8125 -0.46875
v -0.46875 0.0625 0.46875
v -0.46875 0.0625 -0.46875
v 0.40625 0.875 0.121530746787747
v 0.1416757874611161 0.875 0.46875
v -0.21875 1.1875 0.40625
v 0.1416757874611161 1.1875 0.34375
v -0.28125 1.125 0.09375
v -0.21875 1.3125 0.375
v 0.28125 1.25 0.184030746787747
v -0.21875 1.25 0.15625
v 0.34375 1.1875 0.121530746787747
v 0.1416757874611161 1.5 0.28125
v 0.2940441942979162 0.865649516191493 0.0332201777427511
v 0.2617696648874914 0.7814779474882638 -0.2530900478162281
v -0.25422611253466076 0.8199603239554449 -0.3982910304688231
v -0.07862790609766646 0.8450101744918611 -0.036707918763908
v 0.03679446106027355 0.6610564371238934 -0.08079662333171794
v 0.2844665614558562 0.7441957788235253 -0.010868526825058851
v 0.25219203204543145 0.6600242101202961 -0.29717875238403807
v -0.26380374537672074 0.6985065865874772 -0.442379735036633
vt 0.484375 0.546875
vt 0.484375 0.75
vt 0.25 0.7345559191919847
vt 0.25002407047042563 0.546875
vt 0.453125 0.765625
vt 0.453125 1
vt 0.21875 1
vt 0.21875 0.765625
vt 0.457893599626917 0.53125
vt 0.29797505327378193 0.5234461746863001
vt 0.25 0.34375
vt 0.4789981857028037 0.34375
vt 0.46875 0.778137574294471
vt 0.6465840421431144 0.8111504656635247
vt 0.6661790241589938 0.934029848781768
vt 0.46875 1
vt 0.16247956466242763 0.27400540891247793
vt 0.203125 0.36999184606876323
vt 0.1367925703762647 0.40625
vt 0.1367925703762647 0.2906042209443902
vt 0.15260625 0.838908423297
vt 0.03125 0.838908423297
vt 0 0.635783423297
vt 0.234375 0.635783423297
vt 0.6091862835970553 0.6091648551633743
vt 0.5001051057762294 0.6058081589630132
vt 0.5561996022325056 0.39415055254403253
vt 0.15614217364500135 0.920423828299771
vt 0.06471300920210002 0.9183999278663723
vt 0.033005082621578294 0.838908423297
vt 0.15260625 0.838908423297
vt 0.609375 0.6837430545065164
vt 0.5230481290085172 0.6867632792361575
vt 0.5001051057762294 0.6058081589630132
vt 0.606763204626197 0.609090291062242
vt 0.8165495660813077 0.779943553680406
vt 0.7326591983162933 0.796875
vt 0.578125 0.75
vt 0.7993042598775935 0.75
vt 0.15720747880069336 1
vt 0.0654133177351498 0.9506082235321307
vt 0.06478947898515278 0.9184016206219389
vt 0.15614217364500135 0.920423828299771
vt 0.7584400304754759 0.4632386029402824
vt 0.6333692172795696 0.46875
vt 0.6020352923805711 0.4467706196475465
vt 0.789103125 0.43063365837570755
vt 0.684687929255002 1
vt 0.627812070744998 1
vt 0.6836147998491529 0.9678061178245261
vt 0.5760335727442647 0.7025359375
vt 0.5343898227442647 0.765625
vt 0.5230507602442648 0.6867640625
vt 0 0.5088872167692837
vt 0.0814046875 0.4147762792692836
vt 0.075265625 0.4384762792692837
vt 0.03507500000000001 0.5018481542692836
vt 0.075265625 0.4384762792692837
vt 0.0814046875 0.4147762792692836
vt 0.23444218749999998 0.46183252926928364
vt 0.2064578125 0.4674497167692837
vt 0.6298921875 0.3634867833757075
vt 0.789103125 0.43063365837570755
vt 0.601521875 0.4468149083757076
vt 0.601521875 0.37137740837570754
vt 0.23444218749999998 0.46183252926928364
vt 0.1703333494789127 0.609375
vt 0.20645917345953893 0.46744944358952134
vt 0.01689140624999999 0.421875
vt 0.0009320312499999928 0.30503437499999997
vt 0.07719296875000001 0.3018140625
vt 0.0009320312499999928 0.30503437499999997
vt 0.029595472217567968 0.24379849729497316
vt 0.07719267728684595 0.30181407480777467
vt 0.6298934451879231 0.36348731380292
vt 0.7241635056666141 0.352280399821955
vt 0.789103125 0.43063365837570755
vt 0.12084995167229214 0.5204487168648414
vt 0.20645906882493428 0.4674498546617917
vt 0.1703333494789127 0.609375
vt 0.6321238182347417 0.3311736860868977
vt 0.6946352836038688 0.305407011027903
vt 0.7241641781963754 0.35228031987098074
vt 0.6298934451879231 0.36348731380292
vt 0.609375 0.484375
vt 0.6844165187163079 0.484375
vt 0.7037018398280427 0.515625
vt 0.6286607596710391 0.515625
vt 0.625 0.6875
vt 0.7429263956355728 0.6875
vt 0.7353619973778973 0.7166061121514052
vt 0.6385907574127626 0.734375
vt 0.5 0.4030816258762484
vt 0.5 0.2687269601001009
vt 0.53125 0.265625
vt 0.53125 0.39997954815297043
vt 0.031378390862306905 0.609375
vt 0 0.5745535426206598
vt 0.08558137895778736 0.5745535426206598
vt 0.5760335727442647 0.7025359375
vt 0.5230481290085172 0.6867632792361575
vt 0.609375 0.6837430545065164
vn -0.9883209181757763 0.1520493720270425 -0.010136624801802835
vn 0 -1 0
vn 0.21295717828402563 0.23070360980769442 -0.9494340865162809
vn 0.896750174093252 0.3031804787615714 -0.3223673720487651
vn -0.33212639047941606 0.17500831658447744 -0.9268571356327694
vn 0 0 1
vn 0.7575186509539278 0.3049413123006444 0.5772142492257987
vn 0.16945822452544676 0.12766347504213094 0.9772338242615483
vn 0.7144286152987578 0.2598651516731519 0.6496628791828799
vn -0.9428090415820635 -0.23570226039551587 0.23570226039551587
vn 0.1251789677728593 0.24062788284321326 0.9625115313728531
vn 0.03818413929142921 0.7254251912179156 -0.6872410519264864
vn -1 0 0
vn 0.7189239938761307 0.13631810803428102 0.6815905401714049
vn 0.1532421221567115 0.9432597987578134 -0.29458072585333367
vn 0.15324212488919092 0.9432597985227463 -0.2945807251845814
vn 0.016670803016348046 0.2621720867276256 -0.9648771327312471
vn 0.3157356185756524 0.8141151696635098 -0.4873679407659113
vn 0.05911723860132598 0.9967843687466192 0.05409320033569652
vn -0.24463756153900854 0.9373635546892943 -0.2479960278401622
vn 0.1334779408622422 0.4962920287669093 -0.8578332364076371
vn 0.663703038010015 0.6515175999859633 -0.3674548873600774
vn 0.15575395118863658 0.3215790595296311 -0.9339848045665228
vn -0.9941262666778687 0.042220880529892355 0.09965120746084082
vn 0.7667889181364058 0.16474223035347074 -0.6203988656996114
vn -0.2789225611322011 -0.30816932463705793 0.9095239811264976
vn -0.9091372900969898 0.4040610178208844 0.1010152544552211
vn 0.738187630661126 0.06691958338120442 0.6712680472799216
usemtl m_d77e7382-dcc1-1b9f-33a4-14a00c6523ae
f 6/1/1 4/2/1 5/3/1 7/4/1
f 3/5/2 2/6/2 6/7/2 7/8/2
f 5/9/3 1/10/3 3/11/3 7/12/3
f 3/13/4 1/14/4 8/15/4 2/16/4
f 13/17/5 17/18/5 14/19/5 15/20/5
f 9/21/6 4/22/6 6/23/6 2/24/6
f 8/25/7 9/26/7 2/27/7
f 11/28/8 10/29/8 4/30/8 9/31/8
f 16/32/9 11/33/9 9/34/9 8/35/9
f 10/36/10 12/37/10 5/38/10 4/39/10
f 17/40/11 13/41/11 10/42/11 11/43/11
f 15/44/12 14/45/12 16/46/12 12/47/12
f 13/48/13 15/49/13 10/50/13
f 14/51/14 17/52/14 11/53/14
f 8/54/15 1/55/15 19/56/15 18/57/15
f 19/58/16 1/59/16 5/60/16 20/61/16
f 18/62/17 12/63/17 16/64/17 8/65/17
f 5/66/18 12/67/18 20/68/18
f 25/69/19 22/70/19 24/71/19
f 22/72/20 23/73/20 24/74/20
f 18/75/21 21/76/21 12/77/21
f 21/78/22 20/79/22 12/80/22
f 23/81/23 22/82/23 21/83/23 18/84/23
f 24/85/24 23/86/24 18/87/24 19/88/24
f 22/89/25 25/90/25 20/91/25 21/92/25
f 25/93/26 24/94/26 19/95/26 20/96/26
f 15/97/27 12/98/27 10/99/27
f 14/100/28 11/101/28 16/102/28