# Made in Blockbench 5.0.7
mtllib Bush.mtl

o sphere
v 3.469446951953614e-18 0 6.938893903907228e-18
v 3.469446951953614e-18 0.875 6.938893903907228e-18
v 0.07536071037125323 0.8705127018922194 0.3124999999999999
v 0.13052857925749345 0.6875 0.5412658773652741
v 0.1507214207425065 0.43750000000000006 0.625
v 0.13052857925749348 0.1875000000000001 0.5412658773652743
v 0.07536071037125323 0.004487298107780646 0.3124999999999999
v 0.08088928962874664 0.8705127018922194 0.2287658773652741
v 0.23161071037125325 0.6875 0.3962341226347259
v 0.2867785792574934 0.43750000000000006 0.4575317547305484
v 0.23161071037125325 0.1875000000000001 0.3962341226347259
v 0.08088928962874664 0.004487298107780646 0.2287658773652741
v 0.1562499999999999 0.8705127018922194 0.08373412263472582
v 0.36213928962874664 0.6875 0.14503175473054827
v 0.4375 0.43750000000000006 0.16746824526945167
v 0.36213928962874686 0.1875000000000001 0.1450317547305483
v 0.1562499999999999 0.004487298107780646 0.08373412263472582
v 0.1562499999999999 0.8705127018922194 -0.08373412263472584
v 0.36213928962874664 0.6875 -0.14503175473054833
v 0.4375 0.43750000000000006 -0.16746824526945173
v 0.36213928962874686 0.1875000000000001 -0.14503175473054836
v 0.1562499999999999 0.004487298107780646 -0.08373412263472584
v 0.20588928962874664 0.8705127018922194 -0.22876587736527404
v 0.35661071037125325 0.6875 -0.3962341226347258
v 0.4117785792574935 0.43750000000000006 -0.4575317547305483
v 0.35661071037125325 0.1875000000000001 -0.3962341226347258
v 0.20588928962874667 0.004487298107780646 -0.22876587736527404
v 0.0753607103712533 0.8705127018922194 -0.3124999999999999
v 0.1305285792574936 0.6875 -0.541265877365274
v 0.1507214207425067 0.43750000000000006 -0.6249999999999999
v 0.13052857925749362 0.1875000000000001 -0.5412658773652741
v 0.0753607103712533 0.004487298107780646 -0.3124999999999999
v -0.012860710371253109 0.8705127018922194 -0.3125
v -0.06802857925749325 0.6875 -0.5412658773652741
v -0.08822142074250627 0.43750000000000006 -0.625
v -0.13052857925749328 0.1875000000000001 -0.5412658773652743
v -0.07536071037125311 0.004487298107780646 -0.3125
v -0.14338928962874664 0.8705127018922194 -0.22876587736527412
v -0.29411071037125314 0.6875 -0.3962341226347259
v -0.3492785792574934 0.43750000000000006 -0.4575317547305484
v -0.29411071037125314 0.1875000000000001 -0.3962341226347259
v -0.20588928962874664 0.004487298107780646 -0.22876587736527412
v -0.2187499999999999 0.8705127018922194 -0.08373412263472577
v -0.42463928962874675 0.6875 -0.14503175473054822
v -0.4999999999999999 0.43750000000000006 -0.16746824526945156
v -0.42463928962874675 0.1875000000000001 -0.14503175473054825
v -0.2812499999999999 0.004487298107780646 -0.08373412263472577
v -0.28125 0.8705127018922194 0.08373412263472568
v -0.48713928962874675 0.6875 0.14503175473054805
v -0.5625 0.43750000000000006 0.1674682452694514
v -0.48713928962874686 0.1875000000000001 0.14503175473054805
v -0.28125 0.004487298107780646 0.08373412263472568
v -0.2058892896287467 0.8705127018922194 0.228765877365274
v -0.35661071037125336 0.6875 0.3962341226347257
v -0.4117785792574936 0.43750000000000006 0.4575317547305482
v -0.35661071037125336 0.1875000000000001 0.3962341226347257
v -0.2058892896287467 0.004487298107780646 0.228765877365274
v -0.0753607103712532 0.8705127018922194 0.3124999999999999
v -0.13052857925749342 0.6875 0.5412658773652741
v -0.15072142074250644 0.43750000000000006 0.625
v -0.13052857925749342 0.1875000000000001 0.5412658773652743
v -0.0753607103712532 0.004487298107780646 0.3124999999999999
vt 0.815453227741018 0.20311037601966042
vt 0.8140720535905746 0.18217620191214412
vt 0.8343242731024019 0.12498447290303139
vt 0.8176560584315175 0.421875
vt 0.7544663122018244 0.38235946533050513
vt 0.7940535050953934 0.3627105517274578
vt 0.837088461489453 0.42061680713538774
vt 0.0965484375 0.15539218749999995
vt 0.083484375 0.09375
vt 0.137428125 0.09375
vt 0.140625 0.15625
vt 0.3315058837332152 0.9005043988136873
vt 0.357190517588301 0.8395935934728831
vt 0.40066228469222964 0.8475579585972635
vt 0.3842435020432525 0.9111734527849196
vt 0.35959125516193013 0.512211312117997
vt 0.35959125516193013 0.4376835074773746
vt 0.3733839481163697 0.421875
vt 0.390625 0.4890648426885521
vt 0.4202695986266809 0.1665897296092862
vt 0.41888030008994104 0.18752336611070353
vt 0.40003957657888645 0.10939014508148759
vt 0.8140720535905746 0.18217620191214412
vt 0.7952429406565165 0.1459121602248834
vt 0.8343241824024685 0.12498472903722968
vt 0.8373392636471171 0.42095427729953927
vt 0.7940535050953934 0.3627105517274578
vt 0.860210954605533 0.33757392177575274
vt 0.8755360107248683 0.40644136146373233
vt 0.38209976004071217 0.9770625182450898
vt 0.38421519620083877 0.9112831253588276
vt 0.4651087585338254 0.9228779969914446
vt 0.45215564830881977 0.9871039728201028
vt 0.38421519620083877 0.9112831253588276
vt 0.40066228469222964 0.8475579585972635
vt 0.47071817296033724 0.8575994131722764
vt 0.4651087585338254 0.9228779969914446
vt 0.40066228469222964 0.8475579585972635
vt 0.4301452134574942 0.78125
vt 0.4705927679702173 0.7870475466638223
vt 0.47071817296033724 0.8575994131722764
vt 0.43911278410876053 0.1303329981754291
vt 0.4202695986266809 0.1665897296092862
vt 0.4000396671794081 0.10939040125086696
vt 0.7952429406565165 0.1459121602248834
vt 0.795248810216376 0.10404653563633948
vt 0.8343240000523857 0.12498482668302191
vt 0.875535954605533 0.4064411092757527
vt 0.860210954605533 0.33757392177575274
vt 0.932726579605533 0.33757392177575274
vt 0.917401579605533 0.4064411092757527
vt 0.47071817296033724 0.9881556631722763
vt 0.4651087979603372 0.9228775381722764
vt 0.5488431729603372 0.9228775381722764
vt 0.5432337979603372 0.9881556631722763
vt 0.4651087979603372 0.9228775381722764
vt 0.47071817296033724 0.8575994131722764
vt 0.5432337979603372 0.8575994131722764
vt 0.5488431729603372 0.9228775381722764
vt 0.47071817296033724 0.8575994131722764
vt 0.4860431729603373 0.7887322256722764
vt 0.5279087979603373 0.7887322256722764
vt 0.5432337979603372 0.8575994131722764
vt 0.43912316247293615 0.08846737446181197
vt 0.43911278410876053 0.1303329981754291
vt 0.40003984949158117 0.10939049896742137
vt 0.795248810216376 0.10404653563633948
vt 0.7828500587523715 0.06778420223168591
vt 0.8343246387605917 0.12498516893237166
vt 0.9174014163706969 0.40644184281729023
vt 0.932726579605533 0.33757392177575274
vt 0.9955336877981756 0.3386082837135225
vt 0.9535360692399429 0.3971387225825992
vt 0.5466018274207785 0.9883581995076903
vt 0.5488431617067345 0.9228774072104341
vt 0.6216191162667848 0.9210064614940899
vt 0.6092276474530391 0.985518102651917
vt 0.5488431617067345 0.9228774072104341
vt 0.5432337979603372 0.8575994131722764
vt 0.6060481408976419 0.8571980835131376
vt 0.6214733395367278 0.9210102091652856
vt 0.5432337979603372 0.8575994131722764
vt 0.5281434205972364 0.7886793821785804
vt 0.5653501073552823 0.7978635164494329
vt 0.6040684247589371 0.8572107321975938
vt 0.451535986306251 0.052209855706393804
vt 0.43912316247293615 0.08846737446181197
vt 0.4000392106505973 0.10939084096886453
vt 0.7828500587523715 0.06778420223168591
vt 0.8154838559405251 0.04685163400821857
vt 0.834324661139636 0.1249851938010148
vt 0.6812372314688616 1
vt 0.6591551472049417 0.9308752046767086
vt 0.7251797027610886 0.9186326329038625
vt 0.719357747501407 0.9929315214678046
vt 0.6591551472049417 0.9308752046767086
vt 0.6438933167471662 0.8668566057875235
vt 0.7201328124999999 0.8527199335931014
vt 0.7251797027610886 0.9186326329038625
vt 0.005357875331827119 0.7355491738244122
vt 0.020619705789602608 0.6715305749352272
vt 0.08664426134574942 0.6837731467080732
vt 0.08159737108466088 0.7496858460188344
vt 0.020619705789602608 0.6715305749352272
vt 0.04270179005352244 0.6024057796119358
vt 0.08082230608606782 0.6094742581441313
vt 0.0866442613457494 0.6837731467080732
vt 0.41891031544281054 0.03126462398033969
vt 0.451535986306251 0.052209855706393804
vt 0.4000391882619033 0.10939086582882063
vt 0.8154838559405251 0.04685163400821857
vt 0.8375401059405251 0.04685163400821857
vt 0.8343244809405251 0.1249844465082186
vt 0.7389718750000001 0.9918730585931014
vt 0.7251796875000001 0.9186324335931014
vt 0.7748203124999999 0.9186324335931014
vt 0.7610281249999999 0.9918730585931014
vt 0.7251796875000001 0.9186324335931014
vt 0.7201328124999999 0.8527199335931014
vt 0.7798671875000001 0.8527199335931014
vt 0.7748203124999999 0.9186324335931014
vt 0.08159738634574941 0.7496856467080733
vt 0.08664426134574942 0.6837731467080732
vt 0.15190988634574942 0.6837731467080732
vt 0.14133176134574943 0.7496856467080733
vt 0.08664426134574942 0.6837731467080732
vt 0.1004364488457494 0.6105325217080733
vt 0.13811769884574943 0.6105325217080733
vt 0.15190988634574942 0.6837731467080732
vt 0.3812290682805721 0.03125
vt 0.41891031544281054 0.03126462398033969
vt 0.4000393687510227 0.10939011860601533
vt 0.8375401059405251 0.04685163400821857
vt 0.8701730917153478 0.06778257321272418
vt 0.834324482455431 0.12498440969924429
vt 0.78064378881085 0.9929318063377732
vt 0.7748202972389114 0.9186326329038625
vt 0.8408448527950583 0.9308752046767086
vt 0.8187627685311384 1
vt 0.7748202972389115 0.9186326329038625
vt 0.7798671875000001 0.8527199335931014
vt 0.8561066832528338 0.8668566057875235
vt 0.8408448527950583 0.9308752046767086
vt 0.267140625 0.5139843749999999
vt 0.2889421875 0.453125
vt 0.343596875 0.453125
vt 0.34375 0.515625
vt 0.15190964600208767 0.6837718704116191
vt 0.13811769884574937 0.6105325217080733
vt 0.17306743556100534 0.59375
vt 0.19776712466817287 0.6545254020250796
vt 0.3485440807429514 0.052208575633681975
vt 0.38117012645493725 0.03126392780787535
vt 0.4000398554188182 0.10939050737766709
vt 0.8701730917153478 0.06778257321272418
vt 0.8890185425663428 0.10403812720934158
vt 0.8343251751041136 0.1249833044743135
vt 0.4529978227744652 0.5825561033472783
vt 0.4271559808665984 0.5147457098008454
vt 0.4976551944971705 0.5085215365194077
vt 0.4937004375366485 0.5789625862817549
vt 0.4271559808665984 0.5147457098008454
vt 0.4141921245650677 0.4502217450402538
vt 0.4955973540894342 0.4430347109092071
vt 0.4976551944971705 0.5085215365194077
vt 0.4141921245650677 0.4502217450402538
vt 0.4156502952753679 0.3844245008972622
vt 0.48614950890594 0.37820032761582445
vt 0.4955973540894342 0.4430347109092071
vt 0.49112360122720045 0.3326601923512894
vt 0.5349680069517128 0.2835640694600323
vt 0.5739221661406362 0.2958954119366095
vt 0.5585969717993721 0.3540195865186532
vt 0.329714013693749 0.08847036130831709
vt 0.3485440807429514 0.052208575633681975
vt 0.40003945838422905 0.10939006650256766
vt 0.8890185425663428 0.10403812720934158
vt 0.9046499412476285 0.14590257550997854
vt 0.8343243120761837 0.12498363497641662
vt 0.5023757586472686 0.5789152213068106
vt 0.4976551665894342 0.5085206484092071
vt 0.5718323106745622 0.507906374063474
vt 0.5465523384811775 0.5736398437249314
vt 0.4976551665894342 0.5085206484092071
vt 0.4955973540894342 0.4430347109092071
vt 0.5807770415894342 0.4430347109092071
vt 0.5718067290894342 0.5079065859092071
vt 0.4955973540894342 0.4430347109092071
vt 0.4976562103970461 0.377547972406006
vt 0.5718333463000034 0.37816323400229446
vt 0.580747158031241 0.4430347109092072
vt 0.5585971661406361 0.35401884943660955
vt 0.5739221661406362 0.2958954119366095
vt 0.6157877911406362 0.2958954119366095
vt 0.6311127911406362 0.3636547869366096
vt 0.32972176302427975 0.13033598559111614
vt 0.329714013693749 0.08847036130831709
vt 0.4000397621543289 0.10939015686503839
vt 0.9046499412476285 0.14590257550997854
vt 0.8858202624234972 0.18216456277999293
vt 0.834324272591749 0.12498362323144463
vt 0.5465074061581343 0.5737566776150551
vt 0.5718323106745622 0.507906374063474
vt 0.6335541183169802 0.5425372550357905
vt 0.58214103613604 0.59375
vt 0.5718323106745622 0.507906374063474
vt 0.6006050147187604 0.44904478963758887
vt 0.671875 0.4890329635334736
vt 0.6335541183169802 0.5425372550357905
vt 0.6513345455293668 0.42710529916813667
vt 0.631351350178724 0.36470957397226555
vt 0.6974222364289876 0.33934192832527776
vt 0.7276263987727996 0.39781335518693006
vt 0.631351350178724 0.36470957397226555
vt 0.6157877911406362 0.2958954119366095
vt 0.6539322590828902 0.28125
vt 0.6974222364289876 0.3393419283252779
vt 0.34856525290178747 0.16659079788723608
vt 0.32972176302427975 0.13033598559111614
vt 0.40003945841770205 0.10939024733995872
vt 0.8858202624234972 0.18216456277999293
vt 0.8531944409498505 0.2031095599038263
vt 0.8343238755524398 0.12498318236059602
vt 0.19591947934527848 0.203125
vt 0.17383739508135865 0.1340002046767086
vt 0.23986195063750543 0.12175763290386254
vt 0.23403999537782386 0.1960565214678046
vt 0.17383739508135865 0.1340002046767086
vt 0.1585755646235831 0.06998160578752355
vt 0.23481506037641686 0.05584493359310139
vt 0.23986195063750543 0.12175763290386254
vt 0.4554505569930388 0.24251839421247645
vt 0.47071238745081434 0.1784997953232914
vt 0.5367369430069612 0.19074236709613746
vt 0.5316900527458726 0.2566550664068986
vt 0.47071238745081434 0.1784997953232914
vt 0.4927944717147342 0.109375
vt 0.5309149877472795 0.11644347853219539
vt 0.5367369430069612 0.19074236709613746
vt 0.38119905008994104 0.18752336611070353
vt 0.34856525290178747 0.16659079788723608
vt 0.40003985528905195 0.10938980631790729
vt 0.8531344749032563 0.203125
vt 0.815453227741018 0.20311037601966042
vt 0.8343241744328057 0.12498488139398467
vt 0.25365412287641687 0.19499805859310138
vt 0.23986193537641687 0.12175743359310143
vt 0.30512756037641686 0.12175743359310143
vt 0.29133537287641686 0.19499805859310138
vt 0.23986193537641687 0.12175743359310143
vt 0.23481506037641686 0.05584493359310139
vt 0.31017443537641687 0.05584493359310139
vt 0.30512756037641686 0.12175743359310143
vt 0.5316900680069612 0.2566548670961375
vt 0.5367369430069612 0.19074236709613746
vt 0.6020025680069612 0.19074236709613746
vt 0.6070494430069612 0.2566548670961375
vt 0.5367369430069612 0.19074236709613746
vt 0.5505291305069612 0.11750174209613751
vt 0.5882103805069612 0.1175017420961374
vt 0.6020025680069612 0.19074236709613746
vt 0.41888030008994104 0.18752336611070353
vt 0.38119905008994104 0.18752336611070353
vt 0.40003967508994104 0.10939055361070349
vn 0.046694569060696356 0.9989044559716228 0.003083027776772796
vn 0.5912226532029873 0.693297085127479 0.4120617988765295
vn 0.74856929154729 0.2641593856980542 0.6081643155431063
vn 0.7944294938007779 -0.24961812689258497 0.5536899584659971
vn 0.9317775583146254 -0.35777891171657905 0.061520989525000756
vn 0.046694569060696356 -0.9989044559716228 0.003083027776772796
vn 0.022456305484935286 0.9996797273211249 0.011668638615058673
vn 0.5814838046295804 0.7553696200476662 0.30214784801906597
vn 0.8478361297487049 0.29511158789138753 0.44054857596519487
vn 0.8478361297487048 -0.2951115878913876 0.44054857596519503
vn 0.5814838046295805 -0.7553696200476661 0.30214784801906647
vn 0.022456305484935286 -0.9996797273211249 0.011668638615058673
vn 0.028706872129753636 0.9995878728218575 0
vn 0.6643638388299197 0.7474093186836598 0
vn 0.9574452334230321 0.28861501172932075 0
vn 0.9574452334230321 -0.28861501172932 0
vn 0.6643638388299196 -0.74740931868366 0
vn 0.028706872129753636 -0.9995878728218575 0
vn 0.03514519136713985 0.9993098215534414 0.012028967977202046
vn 0.6618672264273652 0.7494795436231072 -0.014566683625517567
vn 0.9519095152532615 0.2945218289960242 -0.08441070438716597
vn 0.9567092275583529 -0.29028281247599125 -0.021055704351280093
vn 0.6839089993107333 -0.6909963284932042 0.23407809523896767
vn 0.03514519136713986 -0.9993098215534414 0.012028967977202055
vn 0.007976548335339343 0.9998908766165053 -0.012434208287253013
vn 0.3431485927794595 0.7720843337537845 -0.5349157175158081
vn 0.5134304330204327 0.30953985726912 -0.8003588365291308
vn 0.5134304330204328 -0.3095398572691201 -0.8003588365291306
vn 0.3431485927794599 -0.7720843337537839 -0.5349157175158082
vn 0.007976548335339341 -0.9998908766165052 -0.012434208287253012
vn 1.8068675306633958e-17 0.9998969204174339 -0.01435787378868751
vn 3.5785969128827244e-16 0.7808688094430305 -0.6246950475544244
vn 4.405834571906689e-16 0.31759557736561256 -0.9482262647901096
vn 8.06522707680398e-16 -0.3175955773656123 -0.9482262647901099
vn 4.714366617512292e-16 -0.7808688094430303 -0.6246950475544245
vn 1.0576095943320278e-17 -0.999896920417434 -0.014357873788687515
vn -0.008973356794405994 0.9998618967220886 -0.01398807889411912
vn -0.34314859277945936 0.7720843337537842 -0.5349157175158084
vn -0.5134304330204322 0.30953985726912 -0.8003588365291311
vn -0.6571466284298283 -0.13704669107965523 -0.7411993748023717
vn -0.3431485927794597 -0.772084333753784 -0.5349157175158082
vn -0.007976548335339336 -0.9998908766165053 -0.012434208287253017
vn -0.017106963509477605 0.9998141511227707 -0.008889038988492597
vn -0.5814838046295803 0.7553696200476662 -0.3021478480190664
vn -0.847836129748705 0.2951115878913878 -0.44054857596519437
vn -0.8478361297487048 -0.29511158789138797 -0.4405485759651949
vn -0.6762212409362098 -0.6475033114197175 -0.3513748639376371
vn -0.013815619972421462 -0.9998787893434222 -0.007178806719089189
vn -0.017945899243619393 0.9998165272607205 -0.006697500776469968
vn -0.6350466723496468 0.7602580522969838 -0.1368335406807738
vn -0.9382063695211672 0.2985275713682316 -0.17507169195188738
vn -0.9327776187692732 -0.2992167858518989 -0.20098564373502747
vn -0.7871667877240996 -0.6167401789279843 -5.3464383252115e-16
vn -0.015952807397580628 -0.9998727458712614 -1.0575840244643264e-17
vn -0.013815619972421457 0.9998787893434222 0.007178806719089191
vn -0.5814838046295805 0.7553696200476662 0.3021478480190662
vn -0.8478361297487053 0.29511158789138753 0.44054857596519426
vn -0.8478361297487051 -0.2951115878913873 0.4405485759651948
vn -0.5814838046295805 -0.7553696200476658 0.3021478480190667
vn -0.013815619972421459 -0.9998787893434222 0.007178806719089192
vn -0.00797654833533934 0.9998908766165053 0.012434208287253015
vn -0.3431485927794596 0.7720843337537843 0.534915717515808
vn -0.5134304330204326 0.30953985726912 0.8003588365291309
vn -0.5134304330204331 -0.3095398572691201 0.8003588365291304
vn -0.3431485927794598 -0.772084333753784 0.5349157175158085
vn -0.00797654833533934 -0.9998908766165053 0.012434208287253015
vn 0 0.999896920417434 0.014357873788687517
vn 0 0.7808688094430304 0.6246950475544242
vn 0 0.31759557736561256 0.9482262647901097
vn 0 -0.31759557736561184 0.9482262647901101
vn 0 -0.7808688094430304 0.6246950475544242
vn 0 -0.999896920417434 0.014357873788687517
usemtl m_9005c171-3a67-3023-6d07-42e7f25a8074
f 3/1/1 8/2/1 2/3/1
f 3/4/2 4/5/2 9/6/2 8/7/2
f 4/8/3 5/9/3 10/10/3 9/11/3
f 5/12/4 6/13/4 11/14/4 10/15/4
f 6/16/5 7/17/5 12/18/5 11/19/5
f 12/20/6 7/21/6 1/22/6
f 8/23/7 13/24/7 2/25/7
f 8/26/8 9/27/8 14/28/8 13/29/8
f 9/30/9 10/31/9 15/32/9 14/33/9
f 10/34/10 11/35/10 16/36/10 15/37/10
f 11/38/11 12/39/11 17/40/11 16/41/11
f 17/42/12 12/43/12 1/44/12
f 13/45/13 18/46/13 2/47/13
f 13/48/14 14/49/14 19/50/14 18/51/14
f 14/52/15 15/53/15 20/54/15 19/55/15
f 15/56/16 16/57/16 21/58/16 20/59/16
f 16/60/17 17/61/17 22/62/17 21/63/17
f 22/64/18 17/65/18 1/66/18
f 18/67/19 23/68/19 2/69/19
f 18/70/20 19/71/20 24/72/20 23/73/20
f 19/74/21 20/75/21 25/76/21 24/77/21
f 20/78/22 21/79/22 26/80/22 25/81/22
f 21/82/23 22/83/23 27/84/23 26/85/23
f 27/86/24 22/87/24 1/88/24
f 23/89/25 28/90/25 2/91/25
f 23/92/26 24/93/26 29/94/26 28/95/26
f 24/96/27 25/97/27 30/98/27 29/99/27
f 25/100/28 26/101/28 31/102/28 30/103/28
f 26/104/29 27/105/29 32/106/29 31/107/29
f 32/108/30 27/109/30 1/110/30
f 28/111/31 33/112/31 2/113/31
f 28/114/32 29/115/32 34/116/32 33/117/32
f 29/118/33 30/119/33 35/120/33 34/121/33
f 30/122/34 31/123/34 36/124/34 35/125/34
f 31/126/35 32/127/35 37/128/35 36/129/35
f 37/130/36 32/131/36 1/132/36
f 33/133/37 38/134/37 2/135/37
f 33/136/38 34/137/38 39/138/38 38/139/38
f 34/140/39 35/141/39 40/142/39 39/143/39
f 35/144/40 36/145/40 41/146/40 40/147/40
f 36/148/41 37/149/41 42/150/41 41/151/41
f 42/152/42 37/153/42 1/154/42
f 38/155/43 43/156/43 2/157/43
f 38/158/44 39/159/44 44/160/44 43/161/44
f 39/162/45 40/163/45 45/164/45 44/165/45
f 40/166/46 41/167/46 46/168/46 45/169/46
f 41/170/47 42/171/47 47/172/47 46/173/47
f 47/174/48 42/175/48 1/176/48
f 43/177/49 48/178/49 2/179/49
f 43/180/50 44/181/50 49/182/50 48/183/50
f 44/184/51 45/185/51 50/186/51 49/187/51
f 45/188/52 46/189/52 51/190/52 50/191/52
f 46/192/53 47/193/53 52/194/53 51/195/53
f 52/196/54 47/197/54 1/198/54
f 48/199/55 53/200/55 2/201/55
f 48/202/56 49/203/56 54/204/56 53/205/56
f 49/206/57 50/207/57 55/208/57 54/209/57
f 50/210/58 51/211/58 56/212/58 55/213/58
f 51/214/59 52/215/59 57/216/59 56/217/59
f 57/218/60 52/219/60 1/220/60
f 53/221/61 58/222/61 2/223/61
f 53/224/62 54/225/62 59/226/62 58/227/62
f 54/228/63 55/229/63 60/230/63 59/231/63
f 55/232/64 56/233/64 61/234/64 60/235/64
f 56/236/65 57/237/65 62/238/65 61/239/65
f 62/240/66 57/241/66 1/242/66
f 58/243/67 3/244/67 2/245/67
f 58/246/68 59/247/68 4/248/68 3/249/68
f 59/250/69 60/251/69 5/252/69 4/253/69
f 60/254/70 61/255/70 6/256/70 5/257/70
f 61/258/71 62/259/71 7/260/71 6/261/71
f 7/262/72 62/263/72 1/264/72
o sphere
v 0.004687499999999997 -0.03125 7.28583859910259e-18
v 0.004687499999999997 0.90625 7.28583859910259e-18
v 0.08570026364909725 0.9014421805988064 0.3281249999999999
v 0.14500572270180545 0.7053571428571429 0.5683291712335379
v 0.16671302729819448 0.43750000000000006 0.6562500000000001
v 0.14500572270180548 0.16964285714285726 0.5683291712335381
v 0.08570026364909725 -0.02644218059880643 0.3281249999999999
v 0.09164348635090264 0.9014421805988064 0.2402041712335378
v 0.2536690136490972 0.7053571428571429 0.41604582876646223
v 0.3129744727018054 0.43750000000000006 0.48040834246707587
v 0.2536690136490972 0.16964285714285726 0.41604582876646223
v 0.09164348635090264 -0.02644218059880643 0.2402041712335378
v 0.17265624999999987 0.9014421805988064 0.08792082876646212
v 0.3939872363509026 0.7053571428571429 0.1522833424670757
v 0.475 0.43750000000000006 0.17584165753292427
v 0.3939872363509029 0.16964285714285726 0.15228334246707573
v 0.17265624999999987 -0.02644218059880643 0.08792082876646212
v 0.17265624999999987 0.9014421805988064 -0.08792082876646214
v 0.3939872363509026 0.7053571428571429 -0.15228334246707576
v 0.475 0.43750000000000006 -0.17584165753292433
v 0.3939872363509029 0.16964285714285726 -0.15228334246707578
v 0.17265624999999987 -0.02644218059880643 -0.08792082876646214
v 0.2260184863509026 0.9014421805988064 -0.24020417123353774
v 0.38804401364909724 0.7053571428571429 -0.4160458287664621
v 0.4473494727018055 0.43750000000000006 -0.4804083424670757
v 0.38804401364909724 0.16964285714285726 -0.4160458287664621
v 0.2260184863509026 -0.02644218059880643 -0.24020417123353774
v 0.0857002636490973 0.9014421805988064 -0.3281249999999999
v 0.1450057227018056 0.7053571428571429 -0.5683291712335378
v 0.16671302729819468 0.43750000000000006 -0.6562499999999999
v 0.14500572270180562 0.16964285714285726 -0.5683291712335379
v 0.0857002636490973 -0.02644218059880643 -0.3281249999999999
v -0.009137763649097096 0.9014421805988064 -0.32812500000000006
v -0.06844322270180525 0.7053571428571429 -0.5683291712335379
v -0.09015052729819424 0.43750000000000006 -0.6562500000000001
v -0.13563072270180526 0.16964285714285726 -0.5683291712335381
v -0.07632526364909709 -0.02644218059880643 -0.32812500000000006
v -0.14945598635090263 0.9014421805988064 -0.24020417123353782
v -0.31148151364909715 0.7053571428571429 -0.41604582876646223
v -0.3707869727018054 0.43750000000000006 -0.48040834246707587
v -0.31148151364909715 0.16964285714285726 -0.41604582876646223
v -0.21664348635090264 -0.02644218059880643 -0.24020417123353782
v -0.23046874999999986 0.9014421805988064 -0.08792082876646207
v -0.45179973635090276 0.7053571428571429 -0.15228334246707564
v -0.5328124999999999 0.43750000000000006 -0.17584165753292416
v -0.45179973635090276 0.16964285714285726 -0.15228334246707567
v -0.29765624999999984 -0.02644218059880643 -0.08792082876646207
v -0.29765624999999996 0.9014421805988064 0.08792082876646197
v -0.5189872363509027 0.7053571428571429 0.15228334246707545
v -0.6 0.43750000000000006 0.175841657532924
v -0.5189872363509029 0.16964285714285726 0.15228334246707545
v -0.29765624999999996 -0.02644218059880643 0.08792082876646197
v -0.2166434863509027 0.9014421805988064 0.2402041712335377
v -0.37866901364909733 0.7053571428571429 0.416045828766462
v -0.4379744727018056 0.43750000000000006 0.4804083424670756
v -0.37866901364909733 0.16964285714285726 0.416045828766462
v -0.2166434863509027 -0.02644218059880643 0.2402041712335377
v -0.0763252636490972 0.9014421805988064 0.3281249999999999
v -0.13563072270180543 0.7053571428571429 0.5683291712335379
v -0.1573380272981944 0.43750000000000006 0.6562500000000001
v -0.13563072270180543 0.16964285714285726 0.5683291712335381
v -0.0763252636490972 -0.02644218059880643 0.3281249999999999
vt 0.8975557978923828 0.6796608691133383
vt 0.8990490187207875 0.7016414575522341
vt 0.8773025667762697 0.761701923964645
vt 0.760221112087213 0.3125
vt 0.6936038949042372 0.2701789392800664
vt 0.7353148808758827 0.24902451596399144
vt 0.7805633209039543 0.31114616000160666
vt 0.015859375000000002 0.15534218749999995
vt 0.002431250000000003 0.09375
vt 0.0596109375 0.09375
vt 0.0625 0.15625
vt 0.0034918592666533244 0.8933670638854491
vt 0.030673160511960784 0.8281135222601618
vt 0.07664712972643006 0.8366989827154626
vt 0.05935321138464203 0.9048686962721102
vt 0.8888082735301883 0.9859950152169424
vt 0.8888082735301883 0.9070704571768976
vt 0.9034685230098298 0.890625
vt 0.921875 0.9621309202048445
vt 0.7271783206731632 0.18898406923410405
vt 0.7256850998447586 0.21096465767299977
vt 0.7054318687286455 0.12892360282169302
vt 0.8990490187207875 0.7016414575522341
vt 0.9193059902418708 0.7397091762691423
vt 0.8773029119664186 0.7617009706007858
vt 0.7808296032682834 0.3115117394169431
vt 0.7353148808758827 0.24902451596399144
vt 0.8049320580630184 0.22196646534341702
vt 0.8210223746169837 0.2958900482528367
vt 0.056332124988191956 0.9753688175119509
vt 0.059323926720920045 0.9049841314845402
vt 0.1446583772121545 0.9174855509072182
vt 0.13023392041877677 0.9861953633612336
vt 0.059323926720920045 0.9049841314845402
vt 0.07664712972643006 0.8366989827154626
vt 0.15054892515701487 0.8475255285647453
vt 0.14465837721215452 0.9174855509072182
vt 0.07664712972643006 0.8366989827154626
vt 0.10705653666373366 0.765625
vt 0.14972298891036098 0.7718755964676897
vt 0.15054892515701487 0.8475255285647453
vt 0.7474352921942465 0.15091635051719576
vt 0.7271783206731632 0.18898406923410405
vt 0.7054322139187945 0.1289245561855522
vt 0.9193059902418708 0.7397091762691423
vt 0.9193186428455259 0.7836685494482749
vt 0.8773029432837935 0.7617009542037669
vt 0.8210226830630184 0.2958914653434169
vt 0.8049320580630184 0.22196646534341702
vt 0.8810726830630184 0.22196646534341702
vt 0.8649820580630184 0.2958914653434169
vt 0.15054892515701487 0.9874474035647453
vt 0.1446583001570149 0.9174864660647453
vt 0.23258017515701487 0.9174864660647453
vt 0.2266895501570149 0.9874474035647453
vt 0.1446583001570149 0.9174864660647453
vt 0.15054892515701487 0.8475255285647453
vt 0.2266895501570149 0.8475255285647453
vt 0.23258017515701487 0.9174864660647453
vt 0.15054892515701487 0.8475255285647453
vt 0.16663955015701487 0.7736005285647453
vt 0.2105989251570149 0.7736005285647453
vt 0.2266895501570149 0.8475255285647453
vt 0.7474479447979017 0.1069569773380632
vt 0.7474352921942465 0.15091635051719576
vt 0.7054322452361693 0.12892457258257117
vt 0.9193186428455259 0.7836685494482749
vt 0.9326636801048807 0.8217379072828518
vt 0.8773032465367224 0.7617011127572998
vt 0.8649824069239073 0.2958898625752704
vt 0.8810726830630184 0.22196646534341702
vt 0.9470211050957628 0.22307941690399857
vt 0.9029177258779114 0.2858754205537445
vt 0.2303965235480164 0.9876579235493504
vt 0.23258007282944887 0.9174852507552577
vt 0.3090081407333467 0.9154679066597097
vt 0.2961433791063276 0.9845986151334463
vt 0.23258007282944887 0.9174852507552577
vt 0.2266895501570149 0.8475255285647453
vt 0.2926459421413644 0.8470926472969686
vt 0.3088466285071966 0.9154721698282643
vt 0.2266895501570149 0.8475255285647453
vt 0.210858683962287 0.7735447915486111
vt 0.2499682910455674 0.7834344153625915
vt 0.2904777817010388 0.8471068772451498
vt 0.7607929820572565 0.06888761950348632
vt 0.7474479447979017 0.1069569773380632
vt 0.7054325484890983 0.12892441402903831
vt 0.9326636801048807 0.8217379072828518
vt 0.8975929311833322 0.843732084463354
vt 0.8773023087699605 0.7617000957762761
vt 0.5910928587122579 0.7812496358572956
vt 0.5668006873635465 0.7078592805044217
vt 0.6373810375567849 0.6952288319161392
vt 0.6318424021326781 0.7739574502594844
vt 0.5668006873635465 0.7078592805044217
vt 0.5504554402890542 0.6393341919324509
vt 0.6319545271298944 0.6247498207368284
vt 0.6373810375567849 0.6952288319161392
vt 0.22498698774419143 0.3696575697775939
vt 0.24133223481868366 0.30113248120562297
vt 0.311912585011922 0.31376292979390563
vt 0.3064860745850315 0.3842419409732164
vt 0.24133223481868366 0.30113248120562297
vt 0.265624406167395 0.22774212585274922
vt 0.3063739495878151 0.23503431145056042
vt 0.311912585011922 0.31376292979390563
vt 0.725722233135708 0.04689344232298409
vt 0.7607929820572565 0.06888761950348632
vt 0.7054316107223363 0.12892543101006204
vt 0.897520519333988 0.84375
vt 0.8738111464370236 0.8437400138437278
vt 0.8773019508372685 0.7617008518593904
vt 0.6522076521298944 0.7727482582368284
vt 0.6373810896298944 0.6952295082368284
vt 0.6907435896298944 0.6952295082368284
vt 0.6759170271298944 0.7727482582368284
vt 0.6373810896298944 0.6952295082368284
vt 0.6319545271298944 0.6247498207368284
vt 0.6961701521298944 0.6247498207368284
vt 0.6907435896298944 0.6952295082368284
vt 0.306486022511922 0.38424261729390563
vt 0.311912585011922 0.31376292979390563
vt 0.382071960011922 0.31376292979390563
vt 0.370701647511922 0.38424261729390563
vt 0.311912585011922 0.31376292979390563
vt 0.32673914751192196 0.23624417979390566
vt 0.367245397511922 0.23624417979390566
vt 0.382071960011922 0.31376292979390563
vt 0.6852159873340637 0.046875
vt 0.725722233135708 0.04689344232298409
vt 0.7054317574879873 0.12892483765821838
vt 0.8738111464370236 0.8437400138437278
vt 0.8387394541889339 0.8217473409133877
vt 0.8773019107577423 0.7617017937886292
vt 0.6962837454320724 0.7739587106249961
vt 0.6907436537045479 0.6952286760412066
vt 0.761324281667235 0.7078575723244993
vt 0.7370334492225981 0.78125
vt 0.6907436537045479 0.6952286760412066
vt 0.6961701521298944 0.6247498207368284
vt 0.7776695597109458 0.6393323994868362
vt 0.761324281667235 0.7078575723244993
vt 0.011935937500000007 0.5764015625000001
vt 0.03492031250000001 0.515625
vt 0.0930765625 0.515625
vt 0.09375 0.578125
vt 0.38207218349608985 0.31376409825175555
vt 0.367245397511922 0.23624417979390566
vt 0.4047641252769213 0.21875
vt 0.43126301225580854 0.2832711369543358
vt 0.6500743246370432 0.06888437914554912
vt 0.6851467370544347 0.046892854710212206
vt 0.7054316484022007 0.12892422406150628
vt 0.8387394541889339 0.8217473409133876
vt 0.8184967492832282 0.7836702643460234
vt 0.8773018771110282 0.7617018461798808
vt 0.26807248008165524 0.7534767349283502
vt 0.2416693260750491 0.6808192060148244
vt 0.3160594518071562 0.6741260261687486
vt 0.3110224210899901 0.7496123553925182
vt 0.2416693260750491 0.6808192060148244
vt 0.22817671148768615 0.6116751227077039
vt 0.3140750372906885 0.6039465036548641
vt 0.3160594518071562 0.6741260261687486
vt 0.22817671148768615 0.6116751227077039
vt 0.2291101975977131 0.5412330648979866
vt 0.30350032332982024 0.5345398850519107
vt 0.3140750372906885 0.603946503654864
vt 0.0003367705210112204 0.41448668803998445
vt 0.046461990110067644 0.3618535428939932
vt 0.0874881949809217 0.3751330992649846
vt 0.07139752293917795 0.4374879690620197
vt 0.6298320179427435 0.10695989783157012
vt 0.6500743246370432 0.06888437914554912
vt 0.7054323663761274 0.12892500276683871
vt 0.8184967492832282 0.7836702643460234
vt 0.8017113198951193 0.7397062547967633
vt 0.877303742999419 0.7617011491213429
vt 0.32049373448702434 0.7496491179024731
vt 0.31605941229068846 0.6741246286548641
vt 0.3940284840514271 0.6734634631805583
vt 0.3669926440305173 0.7439796248044339
vt 0.31605941229068846 0.6741246286548641
vt 0.3140750372906885 0.6039465036548641
vt 0.4035859747906885 0.6039465036548641
vt 0.3940015997906885 0.673463691154864
vt 0.3140750372906885 0.603946503654864
vt 0.31605942620824906 0.5337670914605719
vt 0.39402848166354176 0.534430176994358
vt 0.40355327291745363 0.6039465036548641
vt 0.0713975699809217 0.43748778676498457
vt 0.0874881949809217 0.3751330992649846
vt 0.1314475699809217 0.3751330992649846
vt 0.1475381949809217 0.4478674742649845
vt 0.629840621847495 0.15091927198957478
vt 0.6298320179427435 0.10695989783157012
vt 0.705431630947171 0.12892478909356153
vt 0.8017113198951193 0.7397062547967633
vt 0.8219685296239598 0.7016386628382825
vt 0.8773030643400533 0.7617009516539194
vt 0.36694442600107335 0.7441053893582567
vt 0.3940284840514271 0.6734634631805583
vt 0.4587537375533045 0.7107371941718119
vt 0.40431289481293925 0.765625
vt 0.3940284840514271 0.6734634631805583
vt 0.42526170834812094 0.6105858918114094
vt 0.5 0.6536258928474377
vt 0.4587537375533045 0.7107371941718119
vt 0.1693828011826922 0.5158074746116554
vt 0.14778941572334992 0.4490030661818649
vt 0.21731429992755608 0.42170874554034044
vt 0.24966322947898878 0.48429070509468486
vt 0.14778941572334992 0.4490030661818649
vt 0.1314475699809217 0.3751330992649846
vt 0.17158705691175474 0.359375
vt 0.21731429992755608 0.42170874554034044
vt 0.6500978315763356 0.18898686394805564
vt 0.629840621847495 0.15091927198957478
vt 0.7054323662924291 0.12892457513241873
vt 0.8219685296239598 0.7016386628382825
vt 0.8570495478923829 0.6796608691133383
vt 0.8773023466710044 0.7617001726675972
vt 0.7328160638709188 0.609375
vt 0.7085269317972944 0.5359822434068825
vt 0.7791075876869056 0.5233535032031362
vt 0.7735657837850454 0.602083800737474
vt 0.7085269317972944 0.5359822434068825
vt 0.6921815300858734 0.4674554963504918
vt 0.7736809699141266 0.45287309782543983
vt 0.7791075876869056 0.5233535032031362
vt 0.004681502449483926 0.3137945036495082
vt 0.021026904160904997 0.2452677565931175
vt 0.09160756005051607 0.2578964967968638
vt 0.08618094227773712 0.32837690217456017
vt 0.021026904160904997 0.2452677565931175
vt 0.04531603623452932 0.171875
vt 0.08606575614865593 0.17916619926252597
vt 0.09160756005051607 0.2578964967968638
vt 0.6851788498447586 0.21096465767299977
vt 0.6500978315763356 0.18898686394805564
vt 0.7054316486233801 0.12892535411874095
vt 0.8570495478923829 0.6796608691133383
vt 0.8975557978923828 0.6796608691133383
vt 0.8773026728923828 0.7617014941133383
vt 0.7939340949141266 0.6008715353254399
vt 0.7791075324141266 0.5233527853254398
vt 0.8492669074141266 0.5233527853254398
vt 0.8344403449141267 0.6008715353254399
vt 0.7791075324141266 0.5233527853254398
vt 0.7736809699141266 0.45287309782543983
vt 0.8546934699141266 0.45287309782543983
vt 0.8492669074141266 0.5233527853254398
vt 0.08618099755051606 0.32837618429686377
vt 0.09160756005051607 0.2578964967968638
vt 0.16176693505051606 0.2578964967968638
vt 0.16719349755051607 0.32837618429686377
vt 0.09160756005051607 0.2578964967968638
vt 0.10643412255051607 0.1803777467968637
vt 0.14694037255051606 0.1803777467968637
vt 0.16176693505051606 0.2578964967968638
vt 0.7256850998447586 0.21096465767299977
vt 0.6851788498447586 0.21096465767299977
vt 0.7054319748447586 0.1289240326729998
vn 0.04653976504781726 0.9989114841412713 0.0031459688454891564
vn 0.5878837040152034 0.6916796061521054 0.4194902537445096
vn 0.7418167727969085 0.26264910690208143 0.617027813182452
vn 0.7884642353581778 -0.24856959236535617 0.5626164833279992
vn 0.9312947281629762 -0.35878549559473855 0.06295313690902325
vn 0.04653976504781726 -0.9989114841412713 0.0031459688454891564
vn 0.022381674427179192 0.9996785931998912 0.011906760588947107
vn 0.5791116176266399 0.7547956855995125 0.3080798716732699
vn 0.8436561929284471 0.2946355068236936 0.44881415558360466
vn 0.8436561929284468 -0.2946355068236937 0.448814155583605
vn 0.5791116176266399 -0.7547956855995124 0.3080798716732704
vn 0.022381674427179192 -0.9996785931998912 0.011906760588947107
vn 0.028611578664951162 0.9995906049810089 0
vn 0.6631281418342279 0.7485058900953848 0
vn 0.957179055148837 0.2894965567746525 0
vn 0.9571790551488373 -0.2894965567746517 0
vn 0.6631281418342277 -0.7485058900953848 0
vn 0.028611578664951162 -0.9995906049810089 0
vn 0.035028468944301484 0.9993109344594704 0.012274470789345867
vn 0.6606259983953269 0.7505675924918297 -0.01488554148147286
vn 0.9514707105757508 0.29536734923083685 -0.08638064554531094
vn 0.956429962138239 -0.29116540524495227 -0.021550738103124686
vn 0.6819245170879602 -0.6912879187423395 0.23895599259118214
vn 0.03502846894430149 -0.9993109344594703 0.012274470789345869
vn 0.0079500245118234 0.999887900489725 -0.012687929874932806
vn 0.34014002725627324 0.7678661115310377 -0.5428502524824923
vn 0.505528473529964 0.30579179862165673 -0.8068037793331143
vn 0.5055284735299642 -0.30579179862165684 -0.8068037793331143
vn 0.3401400272562739 -0.7678661115310375 -0.5428502524824923
vn 0.0079500245118234 -0.999887900489725 -0.012687929874932806
vn 2.5726528497124635e-17 0.999892670839837 -0.014650829354590549
vn 4.193604644542132e-16 0.7746612001425196 -0.6323764899122605
vn 8.144876960810492e-16 0.31186713936154536 -0.9501257218844497
vn 7.454919281403848e-16 -0.31186713936154503 -0.9501257218844498
vn 5.524564577838451e-16 -0.7746612001425194 -0.6323764899122607
vn 1.505844944672044e-17 -0.999892670839837 -0.014650829354590552
vn -0.008943511288832494 0.9998581303935962 -0.014273496125655389
vn -0.34014002725627324 0.7678661115310376 -0.5428502524824929
vn -0.5055284735299637 0.305791798621657 -0.8068037793331145
vn -0.6485779089948713 -0.1357105664570603 -0.7489521600981895
vn -0.3401400272562738 -0.7678661115310373 -0.5428502524824926
vn -0.007950024511823393 -0.999887900489725 -0.012687929874932804
vn -0.017050118518420223 0.9998134928779829 -0.009070441975756547
vn -0.5791116176266398 0.7547956855995124 -0.3080798716732703
vn -0.8436561929284472 0.29463550682369377 -0.4488141555836044
vn -0.843656192928447 -0.2946355068236938 -0.4488141555836047
vn -0.6732823905444622 -0.6468382330767076 -0.35817750182407776
vn -0.013769714990011781 -0.9998783599943255 -0.007325309833164685
vn -0.01788628088067647 0.9998166706279461 -0.006834185445763573
vn -0.6335400336274764 0.7609825326220669 -0.13975911718167405
vn -0.9372358868198499 0.2992128363809679 -0.1790546592576287
vn -0.9315932229271808 -0.29983297771907746 -0.20550973813486104
vn -0.7861689800513245 -0.618011597629899 -4.746365523193626e-16
vn -0.015899821458248278 -0.999873589849035 -1.0038774723828568e-17
vn -0.01376971499001178 0.9998783599943255 0.0073253098331646895
vn -0.5791116176266401 0.7547956855995123 0.30807987167326994
vn -0.8436561929284473 0.2946355068236937 0.4488141555836042
vn -0.8436561929284472 -0.2946355068236931 0.4488141555836048
vn -0.5791116176266399 -0.7547956855995123 0.3080798716732702
vn -0.01376971499001178 -0.9998783599943255 0.0073253098331646895
vn -0.007950024511823394 0.999887900489725 0.012687929874932809
vn -0.3401400272562734 0.7678661115310376 0.5428502524824923
vn -0.5055284735299641 0.30579179862165684 0.8068037793331144
vn -0.5055284735299646 -0.30579179862165695 0.8068037793331139
vn -0.3401400272562736 -0.7678661115310373 0.5428502524824927
vn -0.007950024511823394 -0.999887900489725 0.012687929874932809
vn 0 0.999892670839837 0.014650829354590554
vn 0 0.7746612001425196 0.6323764899122605
vn 0 0.31186713936154564 0.9501257218844497
vn 0 -0.311867139361545 0.9501257218844499
vn 0 -0.7746612001425197 0.6323764899122603
vn 0 -0.999892670839837 0.014650829354590554
usemtl m_9005c171-3a67-3023-6d07-42e7f25a8074
f 65/265/73 70/266/73 64/267/73
f 65/268/74 66/269/74 71/270/74 70/271/74
f 66/272/75 67/273/75 72/274/75 71/275/75
f 67/276/76 68/277/76 73/278/76 72/279/76
f 68/280/77 69/281/77 74/282/77 73/283/77
f 74/284/78 69/285/78 63/286/78
f 70/287/79 75/288/79 64/289/79
f 70/290/80 71/291/80 76/292/80 75/293/80
f 71/294/81 72/295/81 77/296/81 76/297/81
f 72/298/82 73/299/82 78/300/82 77/301/82
f 73/302/83 74/303/83 79/304/83 78/305/83
f 79/306/84 74/307/84 63/308/84
f 75/309/85 80/310/85 64/311/85
f 75/312/86 76/313/86 81/314/86 80/315/86
f 76/316/87 77/317/87 82/318/87 81/319/87
f 77/320/88 78/321/88 83/322/88 82/323/88
f 78/324/89 79/325/89 84/326/89 83/327/89
f 84/328/90 79/329/90 63/330/90
f 80/331/91 85/332/91 64/333/91
f 80/334/92 81/335/92 86/336/92 85/337/92
f 81/338/93 82/339/93 87/340/93 86/341/93
f 82/342/94 83/343/94 88/344/94 87/345/94
f 83/346/95 84/347/95 89/348/95 88/349/95
f 89/350/96 84/351/96 63/352/96
f 85/353/97 90/354/97 64/355/97
f 85/356/98 86/357/98 91/358/98 90/359/98
f 86/360/99 87/361/99 92/362/99 91/363/99
f 87/364/100 88/365/100 93/366/100 92/367/100
f 88/368/101 89/369/101 94/370/101 93/371/101
f 94/372/102 89/373/102 63/374/102
f 90/375/103 95/376/103 64/377/103
f 90/378/104 91/379/104 96/380/104 95/381/104
f 91/382/105 92/383/105 97/384/105 96/385/105
f 92/386/106 93/387/106 98/388/106 97/389/106
f 93/390/107 94/391/107 99/392/107 98/393/107
f 99/394/108 94/395/108 63/396/108
f 95/397/109 100/398/109 64/399/109
f 95/400/110 96/401/110 101/402/110 100/403/110
f 96/404/111 97/405/111 102/406/111 101/407/111
f 97/408/112 98/409/112 103/410/112 102/411/112
f 98/412/113 99/413/113 104/414/113 103/415/113
f 104/416/114 99/417/114 63/418/114
f 100/419/115 105/420/115 64/421/115
f 100/422/116 101/423/116 106/424/116 105/425/116
f 101/426/117 102/427/117 107/428/117 106/429/117
f 102/430/118 103/431/118 108/432/118 107/433/118
f 103/434/119 104/435/119 109/436/119 108/437/119
f 109/438/120 104/439/120 63/440/120
f 105/441/121 110/442/121 64/443/121
f 105/444/122 106/445/122 111/446/122 110/447/122
f 106/448/123 107/449/123 112/450/123 111/451/123
f 107/452/124 108/453/124 113/454/124 112/455/124
f 108/456/125 109/457/125 114/458/125 113/459/125
f 114/460/126 109/461/126 63/462/126
f 110/463/127 115/464/127 64/465/127
f 110/466/128 111/467/128 116/468/128 115/469/128
f 111/470/129 112/471/129 117/472/129 116/473/129
f 112/474/130 113/475/130 118/476/130 117/477/130
f 113/478/131 114/479/131 119/480/131 118/481/131
f 119/482/132 114/483/132 63/484/132
f 115/485/133 120/486/133 64/487/133
f 115/488/134 116/489/134 121/490/134 120/491/134
f 116/492/135 117/493/135 122/494/135 121/495/135
f 117/496/136 118/497/136 123/498/136 122/499/136
f 118/500/137 119/501/137 124/502/137 123/503/137
f 124/504/138 119/505/138 63/506/138
f 120/507/139 65/508/139 64/509/139
f 120/510/140 121/511/140 66/512/140 65/513/140
f 121/514/141 122/515/141 67/516/141 66/517/141
f 122/518/142 123/519/142 68/520/142 67/521/142
f 123/522/143 124/523/143 69/524/143 68/525/143
f 69/526/144 124/527/144 63/528/144
o mesh
v 0.3312500000000001 0.6999999999999997 0.40625
v 0.3312500000000001 0.6999999999999997 0.34375
v 0.3312500000000001 0.6374999999999997 0.40625
v 0.3312500000000001 0.6374999999999997 0.34375
v 0.2812500000000001 0.6999999999999997 0.40625
v 0.2812500000000001 0.6999999999999997 0.34375
v 0.2812500000000001 0.6374999999999997 0.40625
v 0.2812500000000001 0.6374999999999997 0.34375
vt 0.046875 0.984375
vt 0.015625 0.984375
vt 0.015625 0.953125
vt 0.046875 0.953125
vt 0.109375 0.984375
vt 0.078125 0.984375
vt 0.078125 0.953125
vt 0.109375 0.953125
vt 0.171875 0.984375
vt 0.140625 0.984375
vt 0.140625 0.953125
vt 0.171875 0.953125
vt 0.234375 0.984375
vt 0.203125 0.984375
vt 0.203125 0.953125
vt 0.234375 0.953125
vt 0.296875 0.984375
vt 0.265625 0.984375
vt 0.265625 0.953125
vt 0.296875 0.953125
vt 0.359375 0.984375
vt 0.328125 0.984375
vt 0.328125 0.953125
vt 0.359375 0.953125
vn 1 0 0
vn -1 0 0
vn 0 1 0
vn 0 -1 0
vn 0 0 1
vn 0 0 -1
usemtl m_231babed-045a-d441-9079-e5280a0002d5
f 126/529/145 125/530/145 127/531/145 128/532/145
f 131/533/146 129/534/146 130/535/146 132/536/146
f 129/537/147 125/538/147 126/539/147 130/540/147
f 128/541/148 127/542/148 131/543/148 132/544/148
f 127/545/149 125/546/149 129/547/149 131/548/149
f 130/549/150 126/550/150 128/551/150 132/552/150
o mesh
v 0.45624999999999977 0.3062499999999998 0.10000000000000003
v 0.45624999999999977 0.3062499999999998 0.03750000000000003
v 0.45624999999999977 0.2437499999999998 0.10000000000000003
v 0.45624999999999977 0.2437499999999998 0.03750000000000003
v 0.4062499999999998 0.3062499999999998 0.10000000000000003
v 0.4062499999999998 0.3062499999999998 0.03750000000000003
v 0.4062499999999998 0.2437499999999998 0.10000000000000003
v 0.4062499999999998 0.2437499999999998 0.03750000000000003
vt 0.421875 0.984375
vt 0.390625 0.984375
vt 0.390625 0.953125
vt 0.421875 0.953125
vt 0.484375 0.984375
vt 0.453125 0.984375
vt 0.453125 0.953125
vt 0.484375 0.953125
vt 0.546875 0.984375
vt 0.515625 0.984375
vt 0.515625 0.953125
vt 0.546875 0.953125
vt 0.609375 0.984375
vt 0.578125 0.984375
vt 0.578125 0.953125
vt 0.609375 0.953125
vt 0.671875 0.984375
vt 0.640625 0.984375
vt 0.640625 0.953125
vt 0.671875 0.953125
vt 0.734375 0.984375
vt 0.703125 0.984375
vt 0.703125 0.953125
vt 0.734375 0.953125
vn 1 0 0
vn -1 0 0
vn 0 1 0
vn 0 -1 0
vn 0 0 1
vn 0 0 -1
usemtl m_231babed-045a-d441-9079-e5280a0002d5
f 134/553/151 133/554/151 135/555/151 136/556/151
f 139/557/152 137/558/152 138/559/152 140/560/152
f 137/561/153 133/562/153 134/563/153 138/564/153
f 136/565/154 135/566/154 139/567/154 140/568/154
f 135/569/155 133/570/155 137/571/155 139/572/155
f 138/573/156 134/574/156 136/575/156 140/576/156
o mesh
v 0.45624999999999977 0.5812499999999996 -0.27499999999999997
v 0.45624999999999977 0.5812499999999996 -0.33749999999999997
v 0.45624999999999977 0.5187499999999996 -0.27499999999999997
v 0.45624999999999977 0.5187499999999996 -0.33749999999999997
v 0.4062499999999998 0.5812499999999996 -0.27499999999999997
v 0.4062499999999998 0.5812499999999996 -0.33749999999999997
v 0.4062499999999998 0.5187499999999996 -0.27499999999999997
v 0.4062499999999998 0.5187499999999996 -0.33749999999999997
vt 0.796875 0.984375
vt 0.765625 0.984375
vt 0.765625 0.953125
vt 0.796875 0.953125
vt 0.859375 0.984375
vt 0.828125 0.984375
vt 0.828125 0.953125
vt 0.859375 0.953125
vt 0.921875 0.984375
vt 0.890625 0.984375
vt 0.890625 0.953125
vt 0.921875 0.953125
vt 0.984375 0.984375
vt 0.953125 0.984375
vt 0.953125 0.953125
vt 0.984375 0.953125
vt 0.046875 0.921875
vt 0.015625 0.921875
vt 0.015625 0.890625
vt 0.046875 0.890625
vt 0.109375 0.921875
vt 0.078125 0.921875
vt 0.078125 0.890625
vt 0.109375 0.890625
vn 1 0 0
vn -1 0 0
vn 0 1 0
vn 0 -1 0
vn 0 0 1
vn 0 0 -1
usemtl m_231babed-045a-d441-9079-e5280a0002d5
f 142/577/157 141/578/157 143/579/157 144/580/157
f 147/581/158 145/582/158 146/583/158 148/584/158
f 145/585/159 141/586/159 142/587/159 146/588/159
f 144/589/160 143/590/160 147/591/160 148/592/160
f 143/593/161 141/594/161 145/595/161 147/596/161
f 146/597/162 142/598/162 144/599/162 148/600/162
o mesh
v 0.33124999999999977 0.4624999999999997 -0.5249999999999999
v 0.33124999999999977 0.4624999999999997 -0.5874999999999999
v 0.33124999999999977 0.3999999999999997 -0.5249999999999999
v 0.33124999999999977 0.3999999999999997 -0.5874999999999999
v 0.2812499999999998 0.4624999999999997 -0.5249999999999999
v 0.2812499999999998 0.4624999999999997 -0.5874999999999999
v 0.2812499999999998 0.3999999999999997 -0.5249999999999999
v 0.2812499999999998 0.3999999999999997 -0.5874999999999999
vt 0.171875 0.921875
vt 0.140625 0.921875
vt 0.140625 0.890625
vt 0.171875 0.890625
vt 0.234375 0.921875
vt 0.203125 0.921875
vt 0.203125 0.890625
vt 0.234375 0.890625
vt 0.296875 0.921875
vt 0.265625 0.921875
vt 0.265625 0.890625
vt 0.296875 0.890625
vt 0.359375 0.921875
vt 0.328125 0.921875
vt 0.328125 0.890625
vt 0.359375 0.890625
vt 0.421875 0.921875
vt 0.390625 0.921875
vt 0.390625 0.890625
vt 0.421875 0.890625
vt 0.484375 0.921875
vt 0.453125 0.921875
vt 0.453125 0.890625
vt 0.484375 0.890625
vn 1 0 0
vn -1 0 0
vn 0 1 0
vn 0 -1 0
vn 0 0 1
vn 0 0 -1
usemtl m_231babed-045a-d441-9079-e5280a0002d5
f 150/601/163 149/602/163 151/603/163 152/604/163
f 155/605/164 153/606/164 154/607/164 156/608/164
f 153/609/165 149/610/165 150/611/165 154/612/165
f 152/613/166 151/614/166 155/615/166 156/616/166
f 151/617/167 149/618/167 153/619/167 155/620/167
f 154/621/168 150/622/168 152/623/168 156/624/168
o mesh
v -0.04375000000000022 0.5562499999999996 -0.5874999999999999
v -0.04375000000000022 0.5562499999999996 -0.6499999999999999
v -0.04375000000000022 0.4937499999999996 -0.5874999999999999
v -0.04375000000000022 0.4937499999999996 -0.6499999999999999
v -0.09375000000000022 0.5562499999999996 -0.5874999999999999
v -0.09375000000000022 0.5562499999999996 -0.6499999999999999
v -0.09375000000000022 0.4937499999999996 -0.5874999999999999
v -0.09375000000000022 0.4937499999999996 -0.6499999999999999
vt 0.921875 0.921875
vt 0.890625 0.921875
vt 0.890625 0.890625
vt 0.921875 0.890625
vt 0.984375 0.921875
vt 0.953125 0.921875
vt 0.953125 0.890625
vt 0.984375 0.890625
vt 0.046875 0.859375
vt 0.015625 0.859375
vt 0.015625 0.828125
vt 0.046875 0.828125
vt 0.109375 0.859375
vt 0.078125 0.859375
vt 0.078125 0.828125
vt 0.109375 0.828125
vt 0.171875 0.859375
vt 0.140625 0.859375
vt 0.140625 0.828125
vt 0.171875 0.828125
vt 0.234375 0.859375
vt 0.203125 0.859375
vt 0.203125 0.828125
vt 0.234375 0.828125
vn 1 0 0
vn -1 0 0
vn 0 1 0
vn 0 -1 0
vn 0 0 1
vn 0 0 -1
usemtl m_231babed-045a-d441-9079-e5280a0002d5
f 158/625/169 157/626/169 159/627/169 160/628/169
f 163/629/170 161/630/170 162/631/170 164/632/170
f 161/633/171 157/634/171 158/635/171 162/636/171
f 160/637/172 159/638/172 163/639/172 164/640/172
f 159/641/173 157/642/173 161/643/173 163/644/173
f 162/645/174 158/646/174 160/647/174 164/648/174
o mesh
v -0.2875000000000002 0.3687499999999996 -0.4500000000000004
v -0.2875000000000002 0.3687499999999996 -0.5125000000000004
v -0.2875000000000002 0.3062499999999996 -0.4500000000000004
v -0.2875000000000002 0.3062499999999996 -0.5125000000000004
v -0.3375000000000002 0.3687499999999996 -0.4500000000000004
v -0.3375000000000002 0.3687499999999996 -0.5125000000000004
v -0.3375000000000002 0.3062499999999996 -0.4500000000000004
v -0.3375000000000002 0.3062499999999996 -0.5125000000000004
vt 0.296875 0.859375
vt 0.265625 0.859375
vt 0.265625 0.828125
vt 0.296875 0.828125
vt 0.359375 0.859375
vt 0.328125 0.859375
vt 0.328125 0.828125
vt 0.359375 0.828125
vt 0.421875 0.859375
vt 0.390625 0.859375
vt 0.390625 0.828125
vt 0.421875 0.828125
vt 0.484375 0.859375
vt 0.453125 0.859375
vt 0.453125 0.828125
vt 0.484375 0.828125
vt 0.546875 0.859375
vt 0.515625 0.859375
vt 0.515625 0.828125
vt 0.546875 0.828125
vt 0.609375 0.859375
vt 0.578125 0.859375
vt 0.578125 0.828125
vt 0.609375 0.828125
vn 1 0 0
vn -1 0 0
vn 0 1 0
vn 0 -1 0
vn 0 0 1
vn 0 0 -1
usemtl m_231babed-045a-d441-9079-e5280a0002d5
f 166/649/175 165/650/175 167/651/175 168/652/175
f 171/653/176 169/654/176 170/655/176 172/656/176
f 169/657/177 165/658/177 166/659/177 170/660/177
f 168/661/178 167/662/178 171/663/178 172/664/178
f 167/665/179 165/666/179 169/667/179 171/668/179
f 170/669/180 166/670/180 168/671/180 172/672/180
o mesh
v -0.48125000000000023 0.30624999999999974 -0.0750000000000004
v -0.48125000000000023 0.30624999999999974 -0.1375000000000004
v -0.48125000000000023 0.24374999999999974 -0.0750000000000004
v -0.48125000000000023 0.24374999999999974 -0.1375000000000004
v -0.5312500000000002 0.30624999999999974 -0.0750000000000004
v -0.5312500000000002 0.30624999999999974 -0.1375000000000004
v -0.5312500000000002 0.24374999999999974 -0.0750000000000004
v -0.5312500000000002 0.24374999999999974 -0.1375000000000004
vt 0.546875 0.921875
vt 0.515625 0.921875
vt 0.515625 0.890625
vt 0.546875 0.890625
vt 0.609375 0.921875
vt 0.578125 0.921875
vt 0.578125 0.890625
vt 0.609375 0.890625
vt 0.671875 0.921875
vt 0.640625 0.921875
vt 0.640625 0.890625
vt 0.671875 0.890625
vt 0.734375 0.921875
vt 0.703125 0.921875
vt 0.703125 0.890625
vt 0.734375 0.890625
vt 0.796875 0.921875
vt 0.765625 0.921875
vt 0.765625 0.890625
vt 0.796875 0.890625
vt 0.859375 0.921875
vt 0.828125 0.921875
vt 0.828125 0.890625
vt 0.859375 0.890625
vn 1 0 0
vn -1 0 0
vn 0 1 0
vn 0 -1 0
vn 0 0 1
vn 0 0 -1
usemtl m_231babed-045a-d441-9079-e5280a0002d5
f 174/673/181 173/674/181 175/675/181 176/676/181
f 179/677/182 177/678/182 178/679/182 180/680/182
f 177/681/183 173/682/183 174/683/183 178/684/183
f 176/685/184 175/686/184 179/687/184 180/688/184
f 175/689/185 173/690/185 177/691/185 179/692/185
f 178/693/186 174/694/186 176/695/186 180/696/186
o mesh
v -0.48125000000000023 0.5812499999999996 0.33749999999999963
v -0.48125000000000023 0.5812499999999996 0.27499999999999963
v -0.48125000000000023 0.5187499999999996 0.33749999999999963
v -0.48125000000000023 0.5187499999999996 0.27499999999999963
v -0.5312500000000002 0.5812499999999996 0.33749999999999963
v -0.5312500000000002 0.5812499999999996 0.27499999999999963
v -0.5312500000000002 0.5187499999999996 0.33749999999999963
v -0.5312500000000002 0.5187499999999996 0.27499999999999963
vt 0.671875 0.859375
vt 0.640625 0.859375
vt 0.640625 0.828125
vt 0.671875 0.828125
vt 0.734375 0.859375
vt 0.703125 0.859375
vt 0.703125 0.828125
vt 0.734375 0.828125
vt 0.796875 0.859375
vt 0.765625 0.859375
vt 0.765625 0.828125
vt 0.796875 0.828125
vt 0.859375 0.859375
vt 0.828125 0.859375
vt 0.828125 0.828125
vt 0.859375 0.828125
vt 0.921875 0.859375
vt 0.890625 0.859375
vt 0.890625 0.828125
vt 0.921875 0.828125
vt 0.984375 0.859375
vt 0.953125 0.859375
vt 0.953125 0.828125
vt 0.984375 0.828125
vn 1 0 0
vn -1 0 0
vn 0 1 0
vn 0 -1 0
vn 0 0 1
vn 0 0 -1
usemtl m_231babed-045a-d441-9079-e5280a0002d5
f 182/697/187 181/698/187 183/699/187 184/700/187
f 187/701/188 185/702/188 186/703/188 188/704/188
f 185/705/189 181/706/189 182/707/189 186/708/189
f 184/709/190 183/710/190 187/711/190 188/712/190
f 183/713/191 181/714/191 185/715/191 187/716/191
f 186/717/192 182/718/192 184/719/192 188/720/192
o mesh
v -0.35625000000000057 0.7499999999999996 -0.2062500000000004
v -0.35625000000000057 0.7499999999999996 -0.2687500000000004
v -0.35625000000000057 0.6874999999999996 -0.2062500000000004
v -0.35625000000000057 0.6874999999999996 -0.2687500000000004
v -0.40625000000000056 0.7499999999999996 -0.2062500000000004
v -0.40625000000000056 0.7499999999999996 -0.2687500000000004
v -0.40625000000000056 0.6874999999999996 -0.2062500000000004
v -0.40625000000000056 0.6874999999999996 -0.2687500000000004
vt 0.421875 0.796875
vt 0.390625 0.796875
vt 0.390625 0.765625
vt 0.421875 0.765625
vt 0.484375 0.796875
vt 0.453125 0.796875
vt 0.453125 0.765625
vt 0.484375 0.765625
vt 0.546875 0.796875
vt 0.515625 0.796875
vt 0.515625 0.765625
vt 0.546875 0.765625
vt 0.609375 0.796875
vt 0.578125 0.796875
vt 0.578125 0.765625
vt 0.609375 0.765625
vt 0.671875 0.796875
vt 0.640625 0.796875
vt 0.640625 0.765625
vt 0.671875 0.765625
vt 0.734375 0.796875
vt 0.703125 0.796875
vt 0.703125 0.765625
vt 0.734375 0.765625
vn 1 0 0
vn -1 0 0
vn 0 1 0
vn 0 -1 0
vn 0 0 1
vn 0 0 -1
usemtl m_231babed-045a-d441-9079-e5280a0002d5
f 190/721/193 189/722/193 191/723/193 192/724/193
f 195/725/194 193/726/194 194/727/194 196/728/194
f 193/729/195 189/730/195 190/731/195 194/732/195
f 192/733/196 191/734/196 195/735/196 196/736/196
f 191/737/197 189/738/197 193/739/197 195/740/197
f 194/741/198 190/742/198 192/743/198 196/744/198
o mesh
v -0.2500000000000003 0.38749999999999984 0.5812499999999997
v -0.2500000000000003 0.38749999999999984 0.5187499999999997
v -0.2500000000000003 0.32499999999999984 0.5812499999999997
v -0.2500000000000003 0.32499999999999984 0.5187499999999997
v -0.30000000000000027 0.38749999999999984 0.5812499999999997
v -0.30000000000000027 0.38749999999999984 0.5187499999999997
v -0.30000000000000027 0.32499999999999984 0.5812499999999997
v -0.30000000000000027 0.32499999999999984 0.5187499999999997
vt 0.046875 0.796875
vt 0.015625 0.796875
vt 0.015625 0.765625
vt 0.046875 0.765625
vt 0.109375 0.796875
vt 0.078125 0.796875
vt 0.078125 0.765625
vt 0.109375 0.765625
vt 0.171875 0.796875
vt 0.140625 0.796875
vt 0.140625 0.765625
vt 0.171875 0.765625
vt 0.234375 0.796875
vt 0.203125 0.796875
vt 0.203125 0.765625
vt 0.234375 0.765625
vt 0.296875 0.796875
vt 0.265625 0.796875
vt 0.265625 0.765625
vt 0.296875 0.765625
vt 0.359375 0.796875
vt 0.328125 0.796875
vt 0.328125 0.765625
vt 0.359375 0.765625
vn 1 0 0
vn -1 0 0
vn 0 1 0
vn 0 -1 0
vn 0 0 1
vn 0 0 -1
usemtl m_231babed-045a-d441-9079-e5280a0002d5
f 198/745/199 197/746/199 199/747/199 200/748/199
f 203/749/200 201/750/200 202/751/200 204/752/200
f 201/753/201 197/754/201 198/755/201 202/756/201
f 200/757/202 199/758/202 203/759/202 204/760/202
f 199/761/203 197/762/203 201/763/203 203/764/203
f 202/765/204 198/766/204 200/767/204 204/768/204