# Blender 5.0.0
# www.blender.org
mtllib grassflat.mtl
o Plane
v -1.856344 -0.103738 1.830954
v -1.909251 -0.098197 -0.370164
v -0.806339 -0.181837 1.762579
v 1.023540 -0.066216 1.924127
v -1.891428 -0.015838 1.150194
v -0.451614 0.061147 1.265857
v -1.647928 -0.015637 -0.157627
v 0.276073 -0.110019 1.810591
v -0.020431 -0.012360 -0.281109
v -1.301075 -0.127538 -0.885949
v -0.910029 -0.109800 -1.368202
v 0.311882 -0.115748 1.669653
v 0.234586 -0.139319 1.439460
v 0.449769 -0.109887 1.438205
v 1.876837 -0.107961 1.893019
v 1.081568 -0.115017 0.413689
v 0.481480 -0.162014 -1.529726
v 1.735108 -0.141491 0.878055
v 1.150450 -0.118305 -0.124920
v 0.794631 -0.067789 1.008941
v 0.536569 -0.114609 -0.040755
v 1.724996 0.056466 0.927459
v 1.867681 -0.100922 0.129150
v 1.391328 -0.142052 -1.808254
v 1.631250 0.125737 -1.015447
v 1.984116 -0.066728 -1.855667
vn 0.0056 0.9561 0.2929
vn -0.0337 -0.9993 0.0172
vn -0.0460 -0.9962 -0.0739
vn -0.0083 0.9966 -0.0826
vn 0.0079 -0.9998 -0.0206
vn 0.1355 -0.9868 0.0885
vn -0.0002 -1.0000 0.0049
vn 0.0113 -0.9998 -0.0144
vn 0.0408 -0.9981 -0.0468
vn -0.0708 -0.9966 0.0428
vn -0.0411 -0.9992 0.0008
vn 0.0892 0.9938 -0.0662
vn 0.0540 0.9857 0.1594
vn -0.1436 0.9787 -0.1469
vn 0.0313 -0.9990 0.0306
vn 0.0183 -0.9997 0.0167
vn -0.1091 0.9513 -0.2883
vn -0.0194 0.8904 -0.4548
vn -0.0778 0.9970 0.0022
vn 0.1792 0.9838 0.0032
vn -0.0692 0.9950 0.0717
vn -0.1888 0.9781 -0.0877
vn -0.0742 -0.9972 -0.0007
vn 0.0247 -0.9983 -0.0519
vn -0.0634 0.9893 0.1310
vn -0.2644 0.9632 -0.0491
vn -0.0484 0.9970 -0.0609
vn -0.0171 -0.9998 0.0062
vn -0.1333 0.9681 -0.2122
vn -0.4640 0.8154 -0.3462
vn -0.0020 1.0000 -0.0002
vn -0.0363 -0.9570 0.2879
vn 0.1973 -0.9800 0.0239
vn 0.1193 0.9426 0.3118
vn 0.0476 0.9973 -0.0562
vn -0.0929 0.9736 -0.2086
vn 0.0479 0.9560 0.2895
vn -0.1297 0.9911 0.0307
vn -0.0042 -0.9999 0.0135
vn 0.1253 -0.9921 -0.0097
vn -0.0901 0.9958 -0.0155
vn 0.2775 0.9548 -0.1064
vn 0.0491 0.9817 0.1843
vn 0.5626 0.8254 0.0472
vn -0.1429 0.9500 -0.2776
vn -0.5606 0.8245 -0.0767
vn 0.0654 -0.9947 0.0799
vn 0.0610 -0.9979 0.0238
vn -0.9770 -0.2122 0.0229
vn 0.0057 -0.6140 0.7893
vn 0.9864 0.0855 -0.1406
vn 0.9846 0.0067 0.1747
vt 0.512124 0.210362
vt 0.579866 0.306913
vt 0.500816 0.490040
vt 0.139797 0.427885
vt 0.439222 0.217454
vt 0.209942 0.505715
vt 0.075016 0.378314
vt 0.048318 0.196340
vt 0.784993 0.256680
vt 0.924548 0.378130
vt 0.762235 0.469770
vt 0.469215 0.206369
vt 0.438309 0.189123
vt 0.492554 0.000000
vt 0.301335 0.110053
vt 0.243756 0.183339
vt 0.230335 0.103056
vt 0.260989 0.007864
vt 0.359730 0.022546
vt 0.619230 0.145135
vt 0.756183 0.183281
vt 0.633086 0.022642
vt 0.500030 0.111595
vt 0.507756 -0.000000
vt 0.698739 0.110039
vt 0.008301 0.077865
vt 0.887380 0.041955
vt 0.991745 0.078042
vt 0.951612 0.196476
vt 0.561699 0.188993
vt 0.514401 0.352991
vt 0.530794 0.206236
vt 0.485537 0.353034
vt 0.498760 0.490446
vt 0.589604 0.496725
vt 0.789469 0.505357
vt 0.859760 0.427702
vt 0.500030 0.111821
vt 0.560807 0.217396
vt 0.739190 0.007897
vt 0.769725 0.103078
vt -0.000000 0.000000
vt 1.000000 -0.000000
vt 0.409738 0.497395
vt 0.487876 0.210522
vt 0.640556 0.022671
vt 0.366788 0.023154
s 0
usemtl Grass.002
f 8/1/1 6/2/1 1/3/1
f 10/4/2 13/5/2 2/6/2
f 10/4/3 11/7/3 17/8/3
f 9/9/4 11/10/4 7/11/4
f 12/12/5 14/13/5 15/14/5
f 13/5/6 16/15/6 14/13/6
f 14/13/7 16/15/7 15/14/7
f 13/5/8 21/16/8 16/15/8
f 19/17/9 23/18/9 18/19/9
f 16/15/10 18/19/10 15/14/10
f 16/15/11 19/17/11 18/19/11
f 20/20/12 21/21/12 6/2/12
f 22/22/13 4/23/13 15/24/13
f 16/25/14 20/20/14 22/22/14
f 17/8/15 24/26/15 21/16/15
f 24/26/16 23/18/16 19/17/16
f 25/27/17 24/28/17 17/29/17
f 25/27/18 17/29/18 11/10/18
f 8/1/19 4/23/19 20/20/19 14/30/19
f 21/21/20 9/9/20 6/2/20
f 4/23/21 8/1/21 3/31/21
f 8/1/22 14/30/22 12/32/22
f 2/6/23 3/33/23 1/34/23
f 3/33/24 2/6/24 13/5/24
f 1/3/25 6/2/25 5/35/25
f 7/11/26 2/36/26 5/35/26
f 9/9/27 5/35/27 6/2/27
f 10/4/28 17/8/28 13/5/28
f 7/11/29 10/37/29 2/36/29
f 11/10/30 10/37/30 7/11/30
f 9/9/31 7/11/31 5/35/31
f 4/38/32 12/12/32 15/14/32
f 13/5/33 17/8/33 21/16/33
f 6/2/34 13/39/34 14/30/34 20/20/34
f 16/25/35 21/21/35 20/20/35
f 23/40/36 16/25/36 22/22/36
f 9/9/37 21/21/37 19/41/37 25/27/37
f 4/23/38 22/22/38 20/20/38
f 21/16/39 24/26/39 19/17/39
f 24/26/40 26/42/40 23/18/40
f 25/27/41 11/10/41 9/9/41
f 6/2/42 8/1/42 12/32/42 13/39/42
f 23/40/43 25/27/43 16/25/43
f 26/43/44 25/27/44 23/40/44
f 26/43/45 24/28/45 25/27/45
f 16/25/46 25/27/46 19/41/46
f 3/33/47 13/5/47 12/12/47
f 4/38/48 3/33/48 12/12/48
f 1/34/49 5/44/49 2/6/49
f 3/33/50 8/45/50 1/34/50
f 18/46/51 22/22/51 15/24/51
f 23/18/52 22/47/52 18/19/52
