# Blender 5.1.0
# www.blender.org
mtllib mountain.mtl
o Cube
v -1.206456 -0.457986 0.457030
v -0.997638 1.060857 0.297335
v -1.200875 -0.561994 -0.563447
v -0.919130 1.145095 -0.508755
v 0.000000 -0.696514 -0.695472
v 0.000000 1.295870 -1.369882
v -0.000000 -0.621797 0.621107
v -0.000000 1.272155 0.499508
v -5.048257 -0.708570 -0.698469
v -4.914602 -0.521006 1.035194
v -5.152272 1.088368 0.758313
v -5.366052 1.198612 -0.874732
v -3.436316 1.139642 -0.872313
v -3.513652 0.898802 0.758151
v -3.273090 -0.604140 0.958606
v -3.199358 -0.142245 -0.147901
v -4.777352 -0.400704 7.828810
v -5.399767 1.136678 8.348439
v -3.302504 -0.349980 7.778507
v -3.497873 1.211432 8.179964
v -4.931578 -0.535162 6.500010
v -5.617394 1.177110 6.595253
v -3.049332 1.181615 6.212978
v -3.275089 -0.776309 6.481925
v -0.201336 1.186000 8.135798
v 0.068503 -0.788289 8.209378
v -0.050736 1.118887 6.665593
v -0.134196 -0.430421 7.013599
v -5.921193 3.284185 -0.619579
v -5.997372 3.423981 -1.129838
v -5.145950 3.402021 -1.312766
v -5.052408 3.535716 -0.291731
v -1.125410 4.112773 -0.136263
v -0.956740 3.998732 -1.385406
v -0.000000 4.546624 0.025092
v -0.000000 4.283538 -1.505517
v -4.775301 0.399402 2.540487
v -3.303063 -0.812744 3.109990
v -5.433043 -1.029051 3.197755
v -3.746779 0.517111 2.656306
v -5.299942 -0.469582 4.499437
v -3.801806 0.605415 4.962246
v -4.972095 0.654402 4.881936
v -2.994655 -1.020599 4.623394
v -1.611769 1.358373 8.494092
v -1.600195 1.338608 6.690077
v -1.599442 -0.896255 6.547015
v -1.604463 -0.561633 7.987311
v -0.060891 3.231490 7.437650
v -0.185588 3.094042 8.260692
v -1.122290 3.147084 8.504169
v -0.994820 3.068645 7.477128
v -5.699270 3.312837 8.278954
v -4.239657 3.412311 8.301781
v -4.233511 3.501630 7.007263
v -5.914489 3.550615 6.972643
v -4.017818 3.208681 5.350575
v -2.380459 3.076058 7.207402
v -5.185154 3.236584 5.288686
v -2.130108 3.314883 8.204786
v 1.199875 -0.737286 0.737610
v 1.141347 1.213909 0.587344
v 1.201953 -0.731832 -0.730928
v 1.216369 1.256777 -0.973716
v 4.697935 -0.307315 -0.316647
v 4.932051 -0.539740 1.034662
v 5.269396 1.121343 0.826626
v 5.277618 1.249176 -0.778206
v 3.373397 1.195641 -1.015040
v 3.503398 0.914423 0.769419
v 3.248320 -0.664600 0.983336
v 3.209959 -0.705070 -0.704655
v 4.806492 -0.433284 7.860939
v 5.006720 1.288932 7.916099
v 3.308608 -0.607687 8.032866
v 3.489722 1.180112 8.517557
v 5.146838 -0.773669 6.508203
v 5.719153 1.158196 6.588784
v 2.928007 1.210865 6.091476
v 3.139502 -1.106354 6.347050
v 6.254272 3.453668 -0.325254
v 6.066674 3.427256 -1.202348
v 5.123310 3.423333 -1.343172
v 5.217272 3.253475 -0.478566
v 0.842322 3.977420 -0.312138
v 0.449253 3.907740 -1.045158
v 4.602147 0.207694 2.351357
v 3.181985 -1.054384 3.208472
v 5.200656 -0.565792 3.015216
v 3.741162 0.523620 2.662611
v 5.619129 -1.000312 4.622627
v 3.745594 0.620761 4.925846
v 5.375466 0.717690 4.546637
v 3.311870 -0.497379 4.507774
v 1.561153 1.257473 7.661485
v 1.623177 1.232121 7.070123
v 1.601780 -0.792530 6.650604
v 1.604714 -0.732252 8.155874
v 1.076800 3.123539 8.467180
v 1.195968 3.234969 7.327776
v 5.992605 3.387643 8.585273
v 4.196467 3.636547 8.655981
v 4.350574 3.177035 7.120069
v 6.144916 3.677591 6.917258
v 4.046178 3.181831 5.375657
v 2.354227 3.106024 7.175181
v 5.017588 3.097992 5.540150
v 2.207324 3.251712 8.130385
v -1.201307 -0.977469 -0.000235
v -1.174857 0.096684 0.241402
v -1.345573 1.571336 -0.169308
v -1.177465 0.093124 -0.739164
v -0.526152 -0.809141 -0.805135
v -0.479517 1.261563 0.527011
v -0.497849 1.336341 -1.019801
v -0.524652 -0.416033 0.411630
v -0.541744 2.903429 -0.884904
v 0.000000 -0.803386 0.000000
v -0.000000 0.122254 0.611558
v -0.000000 0.183691 -0.617962
v -4.994925 -0.611947 0.074141
v -5.398618 0.044354 1.018552
v -5.707643 1.180301 -0.152902
v -4.980992 0.129672 -0.580593
v -4.559006 1.225651 -0.982691
v -2.125329 0.828252 0.755369
v -4.265288 -0.822158 1.027624
v -2.129717 -0.759404 -0.758777
v -2.137223 0.708109 -0.605630
v -4.568646 1.358045 1.026210
v -2.123059 -0.671255 0.698934
v -4.247569 -0.652972 -0.652621
v -2.828970 0.030259 1.392090
v -3.237941 0.071267 -0.812293
v -3.227218 -0.396793 0.091867
v -3.274829 1.342239 -0.153121
v -5.016513 0.100335 8.044856
v -4.302494 -0.818672 8.241742
v -4.482576 1.195809 8.435839
v -3.331426 0.097127 8.257874
v -4.857311 -0.461321 7.328199
v -4.963614 0.615305 1.971624
v -1.881013 2.454788 8.261950
v -3.482193 -0.740184 2.098213
v -5.227077 -0.826240 5.631006
v -5.464157 1.219008 7.481775
v -3.400350 1.107385 5.684602
v -3.325880 -0.430984 7.352120
v -2.174272 2.301666 7.072549
v -4.316573 -1.303817 6.489744
v -3.322874 0.139244 6.543469
v -5.287693 0.096988 6.515394
v -0.160005 0.145847 8.057894
v 0.056999 1.133770 7.546259
v 0.009584 -0.939975 7.433692
v -0.127080 0.101286 6.785799
v -0.722743 1.177971 8.109246
v -2.451945 1.188293 6.390590
v -0.802160 -0.606300 6.837136
v -2.419620 -0.646732 8.071414
v -6.361744 3.581834 -0.918217
v -5.752484 3.527474 -1.357785
v -5.771661 3.733926 -0.205775
v -5.192408 3.462416 -0.913518
v -5.457598 2.809244 -0.716790
v -4.417087 2.558934 -1.234933
v -4.496710 2.468738 0.058750
v -5.633469 2.509489 -0.131566
v -0.729511 4.113155 -0.868541
v -0.486885 4.171531 -0.334593
v -0.395743 4.137187 -1.250465
v 0.000000 4.366352 -0.988218
v -0.000000 3.010198 -0.947960
v -0.997268 2.928247 0.186318
v 0.000000 2.867890 0.207079
v -3.228066 -0.735978 3.936086
v -4.848735 -0.485149 2.112888
v -3.698550 0.563099 1.958100
v -4.828427 -0.153941 2.624224
v -3.541268 -0.034750 2.864196
v -4.314552 -1.346950 3.350471
v -4.313982 0.531793 2.682088
v -5.433075 -1.130780 3.992150
v -5.348436 1.131567 5.740838
v -3.739586 -0.409882 5.627837
v -5.115058 0.016808 4.789958
v -3.655559 0.003964 4.788668
v -4.314608 -1.179479 4.806568
v -4.312813 0.927898 4.740708
v -2.553782 1.176225 8.268690
v -0.795292 1.192465 6.310181
v -2.396081 -0.748026 6.683323
v -0.802864 -0.776006 8.198156
v -1.611858 0.095680 6.707518
v -1.603630 0.103965 8.204924
v -1.605083 -0.800404 7.433270
v -1.576489 2.213008 7.524687
v 0.074284 3.870831 8.091788
v -0.636086 3.297555 8.619324
v -0.629610 3.281559 7.370408
v -1.075520 3.238471 7.976799
v -0.029324 2.361977 8.654185
v -1.381453 2.391364 8.549365
v -1.166177 2.324059 7.163454
v 0.032478 2.383968 6.760646
v -5.339550 3.655192 8.776937
v -4.347657 3.944306 7.926490
v -5.924875 3.498830 7.876511
v -4.062502 3.551799 5.939435
v -5.225348 3.526098 7.112947
v -3.005168 3.485147 7.041110
v -5.343168 3.295735 6.123674
v -4.545368 3.404907 5.184602
v -3.250825 3.041463 7.796552
v -2.327822 3.171209 7.558652
v -5.493997 2.540366 6.846526
v -5.093053 2.324640 5.221633
v -3.625777 2.383219 5.046987
v -3.319549 2.566911 6.332548
v -3.858241 2.497287 8.533564
v -5.701275 2.474005 8.440147
v 1.201353 -0.965519 -0.000189
v 1.191002 0.069474 0.732790
v 1.579170 1.717595 -0.168504
v 1.189009 0.073179 -0.860955
v 0.526283 -0.828589 -0.824036
v 0.455371 1.231017 0.380863
v 0.592642 1.274236 -1.479164
v 0.525051 -0.601003 0.599849
v 0.599085 2.902653 -0.928385
v 5.046610 -0.668771 0.058968
v 5.594454 0.008188 1.034778
v 5.424172 1.263961 -0.133880
v 5.160141 0.033366 -0.774365
v 4.557705 1.229851 -0.959132
v 2.123414 0.846353 0.776987
v 4.250930 -0.665412 1.024113
v 2.129609 -0.865608 -0.864264
v 2.140588 0.742839 -0.661258
v 4.566383 1.276166 0.950673
v 2.116163 -0.711811 0.734590
v 4.212235 -0.507448 -0.510534
v 3.060949 0.019130 1.144535
v 3.231010 0.048558 -0.957783
v 3.216823 -0.707110 0.060165
v 3.084296 1.612540 -0.163238
v 5.174645 0.027178 8.217439
v 4.225291 -0.515214 7.941210
v 4.377251 1.291338 7.852159
v 3.329025 0.171530 7.958476
v 4.823668 -0.424473 7.317732
v 4.883911 0.549557 1.928260
v 2.023472 2.393718 8.117072
v 3.271083 -0.962868 2.115388
v 4.655306 -0.201864 5.575226
v 5.372016 1.243290 7.461770
v 3.320519 1.122989 5.657454
v 3.299151 -1.141885 7.425036
v 1.811178 2.512311 6.643712
v 4.271851 -0.811081 6.507149
v 3.460698 0.175395 6.680516
v 5.551980 0.016298 6.516939
v 0.762304 1.153309 8.411505
v 2.571708 1.128662 6.817616
v 0.802747 -0.844654 6.596940
v 2.420523 -0.462196 7.889362
v 6.468017 3.625262 -0.923045
v 5.753244 3.533854 -1.370848
v 5.758227 3.554123 -0.362627
v 5.053305 3.664252 -0.924394
v 5.628585 2.707408 -0.903175
v 4.511014 2.513869 -1.114133
v 4.299626 2.739953 0.272976
v 5.923534 2.549958 0.141520
v 0.732925 4.114694 -0.868562
v 0.455102 4.116858 -0.393406
v 0.544442 4.261508 -1.543346
v 0.638604 2.790181 -0.097091
v 3.203463 -1.026500 3.977342
v 4.863002 -0.498446 2.111398
v 3.772490 0.481674 1.910500
v 5.173237 0.003845 2.942429
v 3.711796 -0.117071 2.699700
v 4.314141 -1.142940 3.253942
v 4.314219 0.388281 2.539236
v 5.439228 -1.203434 4.002468
v 5.390676 1.129541 5.727994
v 3.808676 -0.327488 5.633904
v 5.096399 0.018027 4.790463
v 3.420042 0.001632 4.785325
v 4.314301 -1.077817 4.792313
v 4.312675 0.929388 4.730588
v 2.566485 1.176604 8.166448
v 0.792990 1.187121 6.340183
v 2.403150 -0.708459 6.718235
v 0.802835 -0.770320 8.192587
v 1.604238 0.064979 6.464031
v 1.602800 0.117672 8.135061
v 1.604100 -1.045912 7.434161
v 1.568678 1.937628 7.535133
v 0.538751 3.140504 8.373587
v 0.637322 3.302214 7.351525
v 1.007644 3.186683 7.975431
v 1.005865 2.314511 8.215941
v 0.826396 2.100689 7.484357
v 5.249386 3.462422 8.408054
v 4.298574 4.340809 8.002877
v 5.958818 3.514399 7.884888
v 4.188221 3.395256 5.986133
v 5.333024 4.046741 7.020696
v 2.882666 3.830045 6.731740
v 5.467803 3.382419 6.041112
v 4.527076 3.661297 4.881592
v 3.046028 3.410735 8.287625
v 2.110799 3.387347 7.553142
v 5.891675 2.502247 6.783561
v 5.179169 2.345842 5.096788
v 3.775065 2.317142 5.195342
v 3.597289 2.380327 6.606448
v 3.859861 2.496724 8.510941
v 5.867982 2.420021 8.621650
v -5.195521 2.533364 -1.630868
v -0.533661 0.062091 1.112903
v -0.373644 2.985752 -0.974560
v -0.525192 -1.235436 -0.000000
v -0.518893 0.102735 -0.883976
v -5.400640 0.057776 0.021442
v -4.249318 -0.832621 0.064432
v -4.300309 0.065231 -0.959966
v -5.168642 0.132846 7.365119
v -2.089839 0.016561 1.021509
v -2.132011 0.032017 -0.832664
v -2.138845 -0.567800 0.019659
v -2.148710 1.102050 -0.035055
v -4.313468 0.052168 8.420539
v -0.696505 2.355046 8.671188
v -4.217042 -0.551817 7.331237
v -3.540594 2.454520 5.788424
v -5.645675 2.436277 5.842836
v -4.307414 -0.915320 5.627637
v -3.167240 0.045128 5.591745
v -5.062404 0.103217 5.656778
v 0.099283 0.030610 7.447762
v -0.802309 -0.699684 7.433691
v -0.804452 0.036939 8.493386
v -0.795467 0.090819 6.720403
v -5.848031 3.312001 -0.964193
v -4.146320 2.617497 -0.559959
v -6.260623 2.535184 -0.557854
v -5.200400 2.684729 0.518516
v -0.533071 4.697116 -1.011498
v -0.847203 2.914435 -0.531295
v -0.526112 2.934259 0.393651
v -5.172323 -0.009186 2.031724
v -2.920674 0.047540 2.191307
v -4.309601 -1.051194 2.086734
v -4.340581 0.783661 1.971041
v -4.313853 -0.886976 3.976007
v -2.388524 0.059567 6.447571
v -2.446761 0.154581 7.964194
v -2.413501 -1.098617 7.433689
v -1.703194 2.464474 7.470070
v -0.545908 3.403688 8.054744
v -0.687088 2.330976 6.918374
v 0.285132 2.398569 7.780776
v -1.518654 2.466358 7.765428
v -4.313853 -0.203034 2.647321
v -5.651840 4.610739 8.179187
v -4.950054 4.064144 5.905111
v -3.139260 3.648025 7.737087
v -2.685353 2.503866 6.494617
v -4.375171 2.262757 5.297171
v -4.838895 2.545940 8.245042
v -2.631343 2.520424 9.091490
v -6.126405 2.478072 7.745385
v 5.193266 2.585208 -1.296811
v 0.524822 0.081180 0.923782
v 0.481580 2.946289 -1.321734
v 0.525192 -0.661942 -0.000000
v 0.505494 0.150154 -0.691670
v 5.490053 0.028754 0.006922
v 4.216724 -0.621789 0.100067
v 4.302009 0.061916 -0.972611
v 5.337093 0.076354 7.403882
v 2.056173 0.013064 1.211718
v 2.132082 0.030767 -0.843361
v 2.135609 -0.693654 0.015253
v 2.159511 1.226171 -0.034372
v 4.324759 0.035729 8.481424
v 0.601161 2.359265 8.261847
v 4.249675 -0.760283 7.367367
v 3.757398 2.369391 5.846058
v 5.400162 2.432137 5.954685
v 4.316415 -1.224225 5.628453
v 3.251549 0.050898 5.609123
v 5.634295 0.013022 5.627679
v 0.802309 -0.609365 7.433692
v 0.777881 0.181664 7.870292
v 0.797828 0.075371 6.607522
v 6.020151 4.265905 -1.090353
v 4.062600 2.686923 -0.564471
v 6.045198 2.602696 -0.557198
v 5.202705 2.717479 0.571810
v 0.318757 4.289133 -0.970271
v 1.174509 2.961929 -0.532040
v 0.569724 2.990975 0.547329
v 5.126956 -0.011440 2.025301
v 3.697712 -0.065977 1.952234
v 4.309973 -1.064011 2.085641
v 4.340961 1.204216 2.172178
v 4.313853 -0.894957 3.977158
v 2.429275 0.086774 6.619811
v 2.440615 0.116525 8.142124
v 2.419326 -0.900106 7.426956
v 2.134153 2.288900 7.481422
v 0.573599 3.483584 8.059363
v 0.629680 2.204762 7.229733
v 1.475842 2.451535 7.765419
v 4.313853 0.050712 3.356659
v 5.500983 4.108407 8.037222
v 4.908355 3.390559 6.168701
v 3.021909 4.032012 7.762486
v 2.742436 2.435287 6.699244
v 4.367353 2.320812 5.044808
v 4.960682 2.483976 9.012588
v 2.743712 2.465665 8.645962
v 5.882656 2.527837 7.703690
vn 0.2458 -0.2054 -0.9473
vn -0.6962 -0.2844 -0.6591
vn -0.7860 -0.5588 -0.2646
vn 0.3086 0.3115 -0.8987
vn 0.1700 -0.4844 0.8581
vn 0.4347 0.2472 0.8660
vn -0.6863 0.2414 0.6861
vn -0.4924 -0.3615 0.7917
vn -0.3422 0.1416 -0.9289
vn -0.7221 0.0392 -0.6907
vn 0.1485 -0.2971 -0.9432
vn -0.2037 -0.3199 -0.9253
vn -0.3811 -0.7875 -0.4843
vn 0.4635 -0.8349 -0.2969
vn 0.0159 -0.7180 0.6959
vn -0.0586 -0.5436 0.8373
vn -0.2995 -0.1473 -0.9427
vn -0.5300 0.0996 -0.8421
vn -0.0631 -0.3527 -0.9336
vn 0.3386 -0.0021 -0.9409
vn -0.8116 -0.5814 0.0571
vn -0.9590 0.0297 0.2818
vn -0.7994 -0.3559 -0.4839
vn -0.9473 -0.2019 -0.2488
vn 0.4626 -0.8126 -0.3544
vn 0.3057 -0.9477 -0.0916
vn -0.3491 -0.9351 0.0610
vn -0.1048 -0.9931 -0.0517
vn 0.1168 -0.0129 -0.9931
vn 0.3649 -0.6547 -0.6620
vn -0.2188 -0.1159 -0.9689
vn -0.3086 -0.2206 -0.9252
vn -0.9443 -0.2871 0.1609
vn -0.8684 -0.4782 0.1313
vn -0.8614 -0.4747 0.1807
vn -0.9405 -0.3221 0.1078
vn 0.4970 -0.1001 0.8620
vn 0.5106 0.0608 0.8577
vn 0.1676 0.5204 0.8373
vn 0.2440 -0.5463 0.8013
vn 0.0270 0.2521 -0.9673
vn 0.1721 -0.1699 -0.9703
vn -0.3820 -0.5572 -0.7373
vn 0.1223 0.1087 -0.9865
vn -0.0962 -0.9817 -0.1645
vn -0.0508 -0.9377 0.3437
vn -0.1327 -0.9712 -0.1978
vn -0.3619 -0.9296 -0.0706
vn -0.1300 0.8235 0.5522
vn -0.2973 0.6337 -0.7142
vn 0.3037 0.8508 -0.4288
vn 0.0946 0.9130 0.3968
vn 0.3692 -0.4062 0.8358
vn 0.2061 0.0577 0.9768
vn -0.2677 -0.2055 0.9413
vn -0.6112 -0.3198 0.7239
vn 0.1206 -0.2800 0.9524
vn -0.0021 -0.4171 0.9089
vn 0.3484 0.2595 0.9007
vn -0.2063 0.0945 0.9739
vn -0.5100 -0.7487 0.4234
vn 0.2696 -0.8141 0.5143
vn 0.2697 -0.9554 -0.1203
vn -0.3686 -0.9196 -0.1358
vn 0.8572 0.1686 -0.4866
vn 0.9479 0.0084 -0.3184
vn 0.8742 0.4554 -0.1685
vn 0.8065 0.5893 -0.0478
vn -0.8538 -0.0430 -0.5188
vn -0.9967 -0.0572 -0.0583
vn -0.9758 -0.0141 -0.2183
vn -0.8730 0.1918 -0.4485
vn -0.3828 -0.9234 -0.0280
vn 0.3288 -0.7930 0.5129
vn 0.4790 -0.7496 -0.4568
vn -0.4874 -0.8726 0.0315
vn 0.9912 0.0486 0.1232
vn 0.7874 0.2684 -0.5549
vn 0.9913 -0.0334 -0.1271
vn 0.9147 -0.3462 -0.2086
vn -0.9844 -0.0674 -0.1626
vn -0.9714 0.2196 0.0907
vn -0.9906 -0.1230 0.0605
vn -0.9314 -0.2516 -0.2630
vn 0.9201 -0.1127 -0.3752
vn 0.9771 -0.0179 -0.2123
vn 0.9183 0.0033 0.3958
vn 0.9885 0.0812 0.1273
vn -0.0861 -0.9888 0.1218
vn 0.2368 -0.9716 0.0025
vn 0.0237 -0.8584 -0.5124
vn -0.1485 -0.9874 0.0539
vn 0.0625 0.0376 0.9973
vn -0.3323 -0.3092 0.8910
vn 0.2718 -0.0433 0.9614
vn 0.3171 0.1261 0.9400
vn 0.1800 0.0261 -0.9833
vn -0.2328 -0.1734 -0.9570
vn 0.2669 -0.2431 -0.9326
vn 0.2075 -0.2663 -0.9413
vn 0.0239 0.9398 -0.3409
vn -0.0335 0.9820 0.1861
vn 0.3124 0.8936 0.3225
vn -0.2720 0.9621 0.0199
vn 0.6385 0.6024 0.4790
vn 0.8174 0.4647 -0.3405
vn 0.6998 0.6792 -0.2213
vn 0.7257 0.6683 0.1637
vn -0.5678 -0.1901 -0.8009
vn -0.7475 0.0311 0.6636
vn -0.4778 0.2850 0.8309
vn -0.2215 -0.4805 -0.8486
vn -0.6884 0.0874 0.7201
vn 0.4909 0.5539 0.6724
vn 0.4334 0.5808 0.6891
vn -0.8583 -0.0660 0.5088
vn -0.0108 0.7610 -0.6487
vn -0.6048 0.6286 -0.4889
vn -0.5584 0.8130 0.1649
vn -0.1181 0.9723 0.2019
vn -0.6816 0.0184 -0.7315
vn -0.9543 0.1831 0.2362
vn -0.9314 -0.1009 -0.3498
vn -0.9861 -0.1522 -0.0667
vn -0.4134 0.0573 0.9087
vn 0.2133 0.1292 0.9684
vn -0.2468 0.2918 0.9241
vn -0.0306 0.3969 0.9173
vn -0.9231 0.2983 0.2426
vn -0.7906 -0.6032 0.1054
vn -0.9829 0.1700 -0.0711
vn -0.8500 0.2459 0.4659
vn 0.7979 -0.5965 0.0872
vn 0.6053 0.7688 0.2062
vn 0.6063 0.7081 0.3620
vn 0.9563 -0.1746 0.2345
vn -0.5894 -0.8051 -0.0668
vn 0.2732 -0.9536 -0.1268
vn 0.3929 -0.9025 -0.1762
vn -0.4082 -0.8223 -0.3964
vn 0.3977 0.8475 0.3516
vn -0.3913 0.7960 0.4619
vn -0.2927 0.8812 0.3712
vn 0.1932 0.9593 0.2057
vn -0.0470 -0.9685 0.2444
vn 0.3325 -0.8901 0.3118
vn 0.0855 -0.9269 -0.3655
vn -0.2443 -0.9284 0.2800
vn 0.0550 -0.0992 -0.9936
vn 0.0439 -0.1796 -0.9828
vn 0.3271 -0.0225 -0.9447
vn 0.0753 -0.0415 -0.9963
vn 0.1120 -0.0906 0.9896
vn -0.0384 -0.2870 0.9571
vn -0.0922 -0.0764 0.9928
vn -0.2265 -0.2565 0.9396
vn -0.4973 -0.7725 0.3949
vn -0.3337 -0.9425 -0.0171
vn 0.0791 -0.9852 -0.1522
vn 0.2244 -0.8427 0.4894
vn 0.9073 0.3237 0.2686
vn 0.5675 0.5033 -0.6516
vn 0.6481 0.4556 -0.6103
vn 0.8715 0.4871 -0.0574
vn -0.3857 0.8960 -0.2200
vn -0.3167 0.9395 0.1302
vn 0.0831 0.6171 0.7825
vn -0.2615 0.8567 -0.4446
vn 0.1326 0.2686 -0.9541
vn -0.3366 0.4941 -0.8016
vn -0.4400 0.4183 -0.7946
vn -0.0606 0.5299 -0.8459
vn 0.8990 -0.2568 0.3547
vn 0.9782 -0.0964 -0.1840
vn 0.9163 0.2526 -0.3109
vn 0.8087 0.1559 0.5672
vn -0.6275 0.5606 -0.5404
vn -0.9712 0.1823 0.1531
vn -0.9073 0.4047 0.1139
vn -0.7721 0.4634 -0.4349
vn 0.0274 0.5284 0.8486
vn -0.1544 0.4220 0.8934
vn -0.1525 0.1078 0.9824
vn -0.1699 0.0444 0.9845
vn 0.1517 0.8030 -0.5764
vn -0.5507 0.6828 -0.4801
vn -0.8419 0.0719 0.5348
vn 0.4286 0.5763 0.6958
vn 0.4511 0.7766 -0.4397
vn -0.6627 0.5592 -0.4980
vn -0.5682 0.8138 -0.1218
vn 0.2730 0.9171 0.2906
vn 0.0988 0.9367 -0.3360
vn 0.3741 0.3298 0.8667
vn 0.0231 0.8372 0.5464
vn 0.5166 0.8398 -0.1667
vn 0.5165 0.3499 -0.7815
vn 0.2691 0.1292 -0.9544
vn 0.1096 0.5835 -0.8047
vn 0.6456 0.4366 -0.6266
vn 0.0100 0.2014 -0.9795
vn -0.0886 0.2797 -0.9560
vn -0.0191 -0.0246 -0.9995
vn -0.0609 0.0792 -0.9950
vn 0.0566 0.0506 0.9971
vn -0.0177 -0.0664 0.9976
vn 0.0727 -0.1152 0.9907
vn -0.1621 -0.2244 0.9609
vn -0.2599 -0.4300 0.8646
vn 0.3417 -0.1749 0.9234
vn 0.0750 0.7213 0.6886
vn 0.1035 0.7575 0.6446
vn -0.9551 -0.1456 -0.2580
vn -0.8932 -0.3671 0.2597
vn -0.8479 0.1012 0.5204
vn -0.9391 -0.0584 -0.3386
vn -0.0604 -0.1218 -0.9907
vn -0.1489 -0.0670 -0.9866
vn 0.5344 -0.4759 -0.6986
vn 0.4541 -0.2973 -0.8399
vn -0.2650 -0.2076 0.9416
vn 0.0157 -0.2094 0.9777
vn -0.0049 0.2871 0.9579
vn -0.1653 0.2655 0.9498
vn -0.3965 0.1422 -0.9070
vn -0.3782 -0.2584 -0.8889
vn 0.9993 0.0362 -0.0089
vn 0.7619 0.2048 -0.6144
vn -0.1482 -0.9880 -0.0428
vn -0.3217 -0.9256 0.1997
vn 0.1536 -0.9692 0.1925
vn 0.0137 -0.9991 0.0393
vn -0.0560 0.0003 -0.9984
vn -0.1744 0.1085 -0.9787
vn -0.1638 -0.5550 -0.8155
vn 0.2071 -0.3645 -0.9079
vn 0.7480 -0.6625 0.0397
vn 0.5044 -0.6930 -0.5151
vn 0.9478 -0.0386 -0.3165
vn 0.9847 0.1697 0.0389
vn 0.1491 -0.9852 -0.0846
vn 0.1559 -0.8666 -0.4739
vn 0.0529 -0.9975 0.0471
vn 0.0422 -0.9991 -0.0021
vn 0.0187 -0.0221 -0.9996
vn 0.2333 -0.0326 -0.9719
vn 0.2695 -0.7605 -0.5907
vn 0.1239 -0.4799 -0.8685
vn 0.9454 -0.1002 0.3102
vn 0.9195 0.0887 0.3830
vn 0.7201 -0.6907 0.0658
vn 0.7438 -0.5565 0.3702
vn -0.2514 -0.2955 0.9217
vn -0.0663 -0.4215 0.9044
vn 0.0154 0.4205 0.9072
vn -0.2713 0.2732 0.9229
vn 0.1833 0.0325 -0.9825
vn -0.2122 0.0826 -0.9737
vn 0.0320 -0.1397 -0.9897
vn -0.0677 -0.0643 -0.9956
vn 0.0715 -0.9967 -0.0385
vn 0.0579 -0.9931 0.1022
vn 0.0133 -0.9998 0.0147
vn 0.1561 -0.9773 0.1431
vn 0.3184 0.7814 0.5368
vn -0.1316 0.8301 0.5419
vn -0.4078 0.7449 -0.5280
vn 0.5702 0.6078 -0.5527
vn -0.2161 -0.3053 0.9274
vn 0.2007 -0.7002 0.6851
vn 0.1281 0.3490 0.9283
vn 0.0757 0.0238 0.9968
vn 0.5506 0.0250 0.8344
vn -0.0637 -0.2217 0.9730
vn 0.1913 0.2063 0.9596
vn 0.0687 -0.1529 0.9858
vn 0.2485 -0.9291 0.2740
vn 0.3532 -0.9126 0.2061
vn 0.2478 -0.8073 0.5355
vn 0.3097 -0.9507 -0.0145
vn -0.7828 0.4754 -0.4015
vn -0.8466 0.5289 0.0589
vn -0.9384 0.3450 0.0199
vn -0.9065 0.2014 -0.3711
vn 0.9854 0.0995 -0.1384
vn 0.8570 0.1956 -0.4767
vn 0.8297 -0.0679 -0.5541
vn 0.8995 0.0077 -0.4370
vn 0.5212 -0.6725 0.5254
vn 0.6359 -0.7393 -0.2216
vn -0.2958 -0.8935 -0.3379
vn -0.7044 -0.6847 0.1873
vn -0.8483 -0.4911 0.1980
vn -0.9570 -0.0844 -0.2776
vn -0.9683 -0.2348 -0.0848
vn -0.8716 0.2504 -0.4214
vn 0.9657 -0.0391 -0.2567
vn 0.9892 0.0442 -0.1399
vn 0.5587 -0.7477 -0.3588
vn 0.8478 -0.3798 0.3701
vn -0.2378 -0.9662 0.0998
vn 0.2224 -0.9749 -0.0145
vn -0.0957 -0.9747 -0.2018
vn -0.2332 -0.9724 -0.0106
vn 0.2868 -0.0229 0.9577
vn -0.0437 -0.2950 0.9545
vn 0.1092 0.2559 0.9605
vn -0.1336 0.1835 0.9739
vn -0.0530 -0.0985 -0.9937
vn -0.3311 -0.1391 -0.9333
vn -0.2666 -0.1639 -0.9498
vn 0.3316 0.1367 -0.9335
vn -0.3876 0.6821 0.6201
vn 0.4075 0.6856 0.6032
vn 0.5125 0.1415 -0.8469
vn -0.3520 0.5922 -0.7248
vn -0.6870 0.5627 0.4597
vn -0.4319 0.8248 0.3649
vn -0.7087 0.4267 -0.5618
vn -0.6760 0.4811 -0.5582
vn 0.7926 -0.3704 -0.4844
vn 0.5549 -0.5215 -0.6481
vn 0.9391 -0.2836 0.1939
vn 0.9187 -0.3799 0.1083
vn 0.3895 0.1610 0.9068
vn 0.3631 0.4651 0.8074
vn -0.2887 0.8544 0.4320
vn -0.2795 0.3610 0.8897
vn 0.1121 0.9907 -0.0771
vn 0.5292 0.8470 -0.0496
vn 0.3218 0.9288 0.1839
vn 0.9192 0.3500 -0.1806
vn 0.7333 0.1873 -0.6536
vn 0.5592 -0.0208 -0.8288
vn 0.8782 0.1925 0.4378
vn 0.5561 0.4407 0.7047
vn 0.5331 0.1901 0.8244
vn 0.8196 0.2305 0.5245
vn 0.1808 0.3719 0.9105
vn -0.2144 0.0439 0.9757
vn 0.8242 0.3595 0.4376
vn 0.5156 0.8073 0.2873
vn 0.9477 -0.2432 -0.2068
vn 0.7384 -0.6445 0.1984
vn -0.9285 0.1410 0.3436
vn -0.8867 0.4623 -0.0003
vn -0.9962 0.0866 -0.0109
vn -0.7778 0.4151 0.4719
vn 0.4869 -0.8619 -0.1417
vn 0.6002 -0.7848 -0.1544
vn -0.0862 -0.9932 -0.0781
vn -0.0459 -0.9525 -0.3009
vn -0.5780 0.7958 0.1807
vn -0.4443 0.7474 0.4939
vn 0.6581 0.2969 0.6920
vn 0.5808 0.7323 0.3556
vn 0.1042 -0.9665 -0.2347
vn -0.0931 -0.9953 0.0257
vn -0.2340 -0.9368 0.2600
vn 0.0152 -0.9833 0.1816
vn -0.1483 0.1357 -0.9796
vn 0.1450 -0.1706 -0.9746
vn -0.0353 0.3440 -0.9383
vn -0.3953 -0.2412 -0.8863
vn -0.0805 -0.2602 0.9622
vn -0.2537 0.2029 0.9458
vn 0.1783 -0.1599 0.9709
vn 0.0157 -0.1307 0.9913
vn -0.2110 -0.7225 0.6584
vn 0.2919 -0.8077 0.5122
vn 0.1454 -0.9476 -0.2844
vn -0.3826 -0.9205 -0.0794
vn -0.8267 0.5032 0.2517
vn -0.9966 0.0822 -0.0095
vn -0.9596 0.2770 0.0496
vn -0.9042 0.4261 0.0287
vn 0.3415 0.9394 -0.0287
vn 0.1710 0.8399 -0.5151
vn 0.0467 0.3853 0.9216
vn 0.2745 0.8633 0.4234
vn 0.1213 0.3967 -0.9099
vn 0.2916 0.3744 -0.8802
vn 0.2788 -0.0621 -0.9583
vn 0.5472 0.6462 -0.5320
vn 0.1686 0.5035 -0.8474
vn 0.8862 0.0599 -0.4595
vn 0.9058 0.1109 0.4089
vn 0.7706 -0.0004 0.6373
vn 0.3530 -0.0103 0.9356
vn 0.3047 0.9238 0.2316
vn -0.3369 0.6252 0.7040
vn -0.3725 0.2622 0.8902
vn -0.2544 0.8196 -0.5133
vn 0.1781 0.5645 0.8060
vn 0.3833 0.7103 0.5903
vn 0.6096 0.7914 0.0461
vn -0.3375 0.9335 0.1213
vn -0.4496 0.8910 -0.0636
vn 0.1365 0.8285 -0.5431
vn 0.5614 0.7833 -0.2670
vn 0.2298 0.7872 -0.5723
vn -0.6849 0.6722 -0.2813
vn -0.4421 0.7161 0.5401
vn -0.3166 0.6405 0.6996
vn -0.1202 -0.1886 -0.9747
vn -0.3891 0.3726 -0.8425
vn 0.1753 0.1702 -0.9697
vn -0.5376 0.3081 -0.7849
vn -0.3262 0.1842 -0.9272
vn -0.5487 0.1136 -0.8283
vn 0.5118 0.1144 -0.8514
vn -0.0405 0.2732 -0.9611
vn 0.1272 -0.6679 0.7333
vn 0.1464 0.2812 0.9484
vn -0.0933 0.2373 0.9669
vn 0.0954 -0.4456 0.8902
vn -0.1014 -0.1570 0.9824
vn -0.1167 0.1364 0.9838
vn -0.4212 0.2787 0.8631
vn -0.5052 -0.1913 0.8415
vn 0.9388 -0.2778 0.2036
vn 0.9826 -0.1628 0.0897
vn 0.9946 -0.1002 -0.0263
vn 0.8158 -0.5422 0.2013
vt 0.625000 0.250000
vt 0.586806 0.244792
vt 0.620660 0.245660
vt 0.625000 0.250000
vt 0.583333 0.208333
vt 0.619792 0.211806
vt 0.375000 0.875000
vt 0.500000 0.875000
vt 0.496528 0.935764
vt 0.375000 0.937500
vt 0.625000 0.875000
vt 0.590278 0.937934
vt 0.625000 1.000000
vt 0.499132 0.982639
vt 0.375000 1.000000
vt 0.625000 0.375000
vt 0.590278 0.312066
vt 0.621528 0.309028
vt 0.624132 0.340278
vt 0.625000 0.312500
vt 0.125000 0.500000
vt 0.187500 0.500000
vt 0.189236 0.625000
vt 0.142361 0.625000
vt 0.250000 0.500000
vt 0.250000 0.625000
vt 0.250000 0.750000
vt 0.187500 0.750000
vt 0.125000 0.750000
vt 0.375000 0.250000
vt 0.499132 0.267361
vt 0.496528 0.314236
vt 0.375000 0.312500
vt 0.590278 0.312066
vt 0.500000 0.375000
vt 0.375000 0.375000
vt 0.375000 0.000000
vt 0.499132 0.034722
vt 0.495660 0.124132
vt 0.375000 0.125000
vt 0.625000 0.000000
vt 0.586806 0.120660
vt 0.583333 0.208333
vt 0.494792 0.211806
vt 0.125000 0.624132
vt 0.125000 0.621528
vt 0.125000 0.500000
vt 0.125000 0.715278
vt 0.125000 0.625000
vt 0.499132 0.250000
vt 0.495660 0.245660
vt 0.586806 0.244792
vt 0.375000 0.250000
vt 0.494792 0.211806
vt 0.583333 0.208333
vt 0.583333 0.000000
vt 0.494792 0.000000
vt 0.495660 0.000000
vt 0.586806 0.000000
vt 0.375000 0.000000
vt 0.375000 0.000000
vt 0.500000 0.000000
vt 0.500000 0.998264
vt 0.375000 1.000000
vt 0.625000 1.000000
vt 0.500000 1.000000
vt 0.499132 0.267361
vt 0.500000 0.251736
vt 0.126736 0.625000
vt 0.125000 0.750000
vt 0.875000 0.750000
vt 0.875000 0.625000
vt 0.875000 0.750000
vt 0.875000 0.500000
vt 0.875000 0.500000
vt 0.875000 0.624132
vt 0.494792 1.000000
vt 0.495660 1.000000
vt 0.583333 1.000000
vt 0.586806 1.000000
vt 0.500000 1.000000
vt 0.375000 1.000000
vt 0.620660 1.000000
vt 0.583333 1.000000
vt 0.619792 1.000000
vt 0.125000 0.750000
vt 0.125000 0.750000
vt 0.619792 1.000000
vt 0.586806 0.000000
vt 0.620660 0.000000
vt 0.625000 0.000000
vt 0.583333 0.000000
vt 0.619792 0.000000
vt 0.495660 1.000000
vt 0.586806 1.000000
vt 0.494792 1.000000
vt 0.494792 1.000000
vt 0.583333 1.000000
vt 0.498264 1.000000
vt 0.875000 0.687500
vt 0.875000 0.617091
vt 0.875000 0.619985
vt 0.875000 0.708237
vt 0.875000 0.625000
vt 0.875000 0.708237
vt 0.586806 0.120660
vt 0.620660 0.120660
vt 0.625000 0.125000
vt 0.875000 0.749132
vt 0.875000 0.741512
vt 0.875000 0.708237
vt 0.750000 0.500000
vt 0.812500 0.500000
vt 0.810764 0.625000
vt 0.750000 0.625000
vt 0.857639 0.625000
vt 0.812500 0.750000
vt 0.750000 0.750000
vt 0.873264 0.625000
vt 0.857639 0.625000
vt 0.590278 0.937934
vt 0.621528 0.940972
vt 0.624132 0.909722
vt 0.625000 0.937500
vt 0.499132 0.034722
vt 0.500000 0.003472
vt 0.125000 0.746528
vt 0.875000 0.749132
vt 0.875000 0.750000
vt 0.494792 1.000000
vt 0.000000 0.000000
vt 0.621528 0.246528
vt 0.590278 0.249132
vt 0.624132 0.215278
vt 0.375000 0.937500
vt 0.500000 0.937500
vt 0.625000 0.875000
vt 0.625000 0.309028
vt 0.187500 0.625000
vt 0.187500 0.500000
vt 0.187500 0.750000
vt 0.250000 0.625000
vt 0.375000 0.250000
vt 0.500000 0.312500
vt 0.500000 0.250000
vt 0.625000 0.375000
vt 0.625000 0.312500
vt 0.500000 0.125000
vt 0.125000 0.624132
vt 0.590278 0.249132
vt 0.496528 0.250000
vt 0.494792 0.000000
vt 0.500000 0.250000
vt 0.125000 0.625000
vt 0.125000 0.625000
vt 0.498264 1.000000
vt 0.875000 0.687500
vt 0.875000 0.708237
vt 0.625000 0.121528
vt 0.812500 0.625000
vt 0.875000 0.625000
vt 0.625000 0.940972
vt 0.624132 0.909722
vt 0.500000 0.000000
vt 0.494792 1.000000
s 0
f 13/1/1 125/2/1 322/3/1 166/4/1
f 125/2/2 12/5/2 165/6/2 322/3/2
f 322/3/3 165/6/3 30/1/3 162/4/3
f 166/4/4 322/3/4 162/4/4 31/4/4
f 7/7/5 119/8/5 323/9/5 116/10/5
f 119/8/6 8/11/6 114/12/6 323/9/6
f 323/9/7 114/12/7 2/13/7 110/14/7
f 116/10/8 323/9/8 110/14/8 1/15/8
f 6/16/9 115/17/9 324/18/9 173/19/9
f 115/17/10 4/1/10 117/4/10 324/18/10
f 324/18/11 117/4/11 34/4/11 171/20/11
f 173/19/12 324/18/12 171/20/12 36/16/12
f 3/21/13 113/22/13 325/23/13 109/24/13
f 113/22/14 5/25/14 118/26/14 325/23/14
f 325/23/15 118/26/15 7/27/15 116/28/15
f 109/24/16 325/23/16 116/28/16 1/29/16
f 3/30/17 112/31/17 326/32/17 113/33/17
f 112/31/18 4/1/18 115/34/18 326/32/18
f 326/32/19 115/34/19 6/16/19 120/35/19
f 113/33/20 326/32/20 120/35/20 5/36/20
f 10/37/21 122/38/21 327/39/21 121/40/21
f 122/38/22 11/41/22 123/42/22 327/39/22
f 327/39/23 123/42/23 12/43/23 124/44/23
f 121/40/24 327/39/24 124/44/24 9/30/24
f 16/21/25 135/45/25 328/46/25 132/47/25
f 135/45/26 15/29/26 127/48/26 328/46/26
f 328/46/27 127/48/27 10/29/27 121/49/27
f 132/47/28 328/46/28 121/49/28 9/47/28
f 13/1/29 134/50/29 329/51/29 125/52/29
f 134/50/30 16/30/30 132/53/30 329/51/30
f 329/51/31 132/53/31 9/30/31 124/54/31
f 125/52/32 329/51/32 124/54/32 12/55/32
f 22/56/33 152/57/33 330/58/33 146/59/33
f 152/57/34 21/37/34 141/60/34 330/58/34
f 330/58/35 141/60/35 17/61/35 137/62/35
f 146/59/36 330/58/36 137/62/36 18/41/36
f 1/15/37 110/14/37 331/63/37 131/64/37
f 110/14/38 2/13/38 126/65/38 331/63/38
f 331/63/39 126/65/39 14/13/39 133/66/39
f 131/64/40 331/63/40 133/66/40 15/15/40
f 4/1/41 112/67/41 332/68/41 129/4/41
f 112/67/42 3/30/42 128/53/42 332/68/42
f 332/68/43 128/53/43 16/30/43 134/50/43
f 129/4/44 332/68/44 134/50/44 13/1/44
f 3/21/45 109/24/45 333/69/45 128/47/45
f 109/24/46 1/29/46 131/70/46 333/69/46
f 333/69/47 131/70/47 15/29/47 135/45/47
f 128/47/48 333/69/48 135/45/48 16/21/48
f 2/71/49 111/72/49 334/72/49 126/73/49
f 111/72/50 4/74/50 129/75/50 334/72/50
f 334/72/51 129/75/51 13/74/51 136/76/51
f 126/73/52 334/72/52 136/76/52 14/71/52
f 19/15/53 140/77/53 335/78/53 138/64/53
f 140/77/54 20/79/54 139/80/54 335/78/54
f 335/78/55 139/80/55 18/13/55 137/81/55
f 138/64/56 335/78/56 137/81/56 17/82/56
f 45/13/57 157/80/57 336/83/57 203/65/57
f 157/80/58 25/84/58 202/85/58 336/83/58
f 336/83/59 202/85/59 50/65/59 199/65/59
f 203/65/60 336/83/60 199/65/60 51/65/60
f 21/29/61 150/86/61 337/86/61 141/70/61
f 150/86/62 24/29/62 148/86/62 337/86/62
f 337/86/63 148/86/63 19/29/63 138/70/63
f 141/70/64 337/86/64 138/70/64 17/87/64
f 23/79/65 147/80/65 338/83/65 219/88/65
f 147/80/66 42/13/66 218/65/66 338/83/66
f 338/83/67 218/65/67 57/65/67 209/65/67
f 219/88/68 338/83/68 209/65/68 55/13/68
f 43/41/69 184/89/69 339/90/69 217/91/69
f 184/89/70 22/92/70 216/93/70 339/90/70
f 339/90/71 216/93/71 56/41/71 212/91/71
f 217/91/72 339/90/72 212/91/72 59/91/72
f 41/29/73 188/86/73 340/86/73 145/70/73
f 188/86/74 44/29/74 185/70/74 340/86/74
f 340/86/75 185/70/75 24/29/75 150/86/75
f 145/70/76 340/86/76 150/86/76 21/29/76
f 44/82/77 187/81/77 341/94/77 185/64/77
f 187/81/78 42/13/78 147/95/78 341/94/78
f 341/94/79 147/95/79 23/79/79 151/77/79
f 185/64/80 341/94/80 151/77/80 24/15/80
f 43/41/81 186/62/81 342/58/81 184/59/81
f 186/62/82 41/61/82 145/60/82 342/58/82
f 342/58/83 145/60/83 21/37/83 152/57/83
f 184/59/84 342/58/84 152/57/84 22/56/84
f 28/15/85 156/96/85 343/97/85 155/15/85
f 156/96/86 27/84/86 154/98/86 343/97/86
f 343/97/87 154/98/87 25/84/87 153/96/87
f 155/15/88 343/97/88 153/96/88 26/15/88
f 48/29/89 196/86/89 344/86/89 193/70/89
f 196/86/90 47/29/90 159/70/90 344/86/90
f 344/86/91 159/70/91 28/29/91 155/29/91
f 193/70/92 344/86/92 155/29/92 26/29/92
f 45/13/93 195/99/93 345/78/93 157/80/93
f 195/99/94 48/15/94 193/64/94 345/78/94
f 345/78/95 193/64/95 26/82/95 153/96/95
f 157/80/96 345/78/96 153/96/96 25/84/96
f 47/15/97 194/99/97 346/78/97 159/64/97
f 194/99/98 46/13/98 191/80/98 346/78/98
f 346/78/99 191/80/99 27/84/99 156/96/99
f 159/64/100 346/78/100 156/96/100 28/82/100
f 32/100/101 164/101/101 347/102/101 163/103/101
f 164/101/102 31/74/102 162/75/102 347/102/102
f 347/102/103 162/75/103 30/75/103 161/104/103
f 163/103/104 347/102/104 161/104/104 29/71/104
f 14/71/105 136/76/105 348/102/105 167/105/105
f 136/76/106 13/74/106 166/75/106 348/102/106
f 348/102/107 166/75/107 31/74/107 164/101/107
f 167/105/108 348/102/108 164/101/108 32/100/108
f 12/5/109 123/106/109 349/107/109 165/6/109
f 123/106/110 11/41/110 168/91/110 349/107/110
f 349/107/111 168/91/111 29/91/111 161/108/111
f 165/6/112 349/107/112 161/108/112 30/1/112
f 11/71/113 130/109/113 350/110/113 168/73/113
f 130/109/114 14/71/114 167/105/114 350/110/114
f 350/110/115 167/105/115 32/100/115 163/111/115
f 168/73/116 350/110/116 163/111/116 29/71/116
f 36/112/117 171/113/117 351/114/117 172/115/117
f 171/113/118 34/74/118 169/116/118 351/114/118
f 351/114/119 169/116/119 33/71/119 170/117/119
f 172/115/120 351/114/120 170/117/120 35/118/120
f 4/74/121 111/72/121 352/119/121 117/75/121
f 111/72/122 2/71/122 174/73/122 352/119/122
f 352/119/123 174/73/123 33/71/123 169/120/123
f 117/75/124 352/119/124 169/120/124 34/74/124
f 2/13/125 114/121/125 353/122/125 174/65/125
f 114/121/126 8/11/126 175/123/126 353/122/126
f 353/122/127 175/123/127 35/11/127 170/124/127
f 174/65/128 353/122/128 170/124/128 33/65/128
f 11/41/129 122/125/129 354/126/129 142/91/129
f 122/125/130 10/37/130 177/60/130 354/126/130
f 354/126/131 177/60/131 39/61/131 179/62/131
f 142/91/132 354/126/132 179/62/132 37/91/132
f 15/15/133 133/66/133 355/66/133 144/64/133
f 133/66/134 14/13/134 178/65/134 355/66/134
f 355/66/135 178/65/135 40/65/135 180/81/135
f 144/64/136 355/66/136 180/81/136 38/82/136
f 10/29/137 127/48/137 356/127/137 177/70/137
f 127/48/138 15/29/138 144/70/138 356/127/138
f 356/127/139 144/70/139 38/29/139 181/29/139
f 177/70/140 356/127/140 181/29/140 39/29/140
f 14/71/141 130/128/141 357/73/141 178/73/141
f 130/128/142 11/71/142 142/73/142 357/73/142
f 357/73/143 142/73/143 37/129/143 182/73/143
f 178/73/144 357/73/144 182/73/144 40/129/144
f 39/29/145 181/29/145 358/86/145 183/70/145
f 181/29/146 38/29/146 176/70/146 358/86/146
f 358/86/147 176/70/147 44/29/147 188/86/147
f 183/70/148 358/86/148 188/86/148 41/29/148
f 24/15/149 151/77/149 359/78/149 192/64/149
f 151/77/150 23/79/150 158/80/150 359/78/150
f 359/78/151 158/80/151 46/13/151 194/99/151
f 192/64/152 359/78/152 194/99/152 47/15/152
f 20/98/153 140/130/153 360/78/153 190/80/153
f 140/130/154 19/15/154 160/64/154 360/78/154
f 360/78/155 160/64/155 48/15/155 195/99/155
f 190/80/156 360/78/156 195/99/156 45/13/156
f 19/29/157 148/86/157 361/86/157 160/70/157
f 148/86/158 24/29/158 192/70/158 361/86/158
f 361/86/159 192/70/159 47/29/159 196/86/159
f 160/70/160 361/86/160 196/86/160 48/29/160
f 45/71/161 197/73/161 362/73/161 143/73/161
f 197/73/162 46/71/162 149/73/162 362/73/162
f 362/73/163 149/73/163 58/71/163 215/73/163
f 143/73/164 362/73/164 215/73/164 60/71/164
f 52/71/165 201/73/165 363/73/165 200/73/165
f 201/73/166 51/71/166 199/73/166 363/73/166
f 363/73/167 199/73/167 50/71/167 198/71/167
f 200/73/168 363/73/168 198/71/168 49/71/168
f 27/84/169 191/80/169 364/83/169 205/85/169
f 191/80/170 46/13/170 204/65/170 364/83/170
f 364/83/171 204/65/171 52/65/171 200/65/171
f 205/85/172 364/83/172 200/65/172 49/65/172
f 25/84/173 154/98/173 365/88/173 202/85/173
f 154/98/174 27/84/174 205/85/174 365/88/174
f 365/88/175 205/85/175 49/13/175 198/13/175
f 202/85/176 365/88/176 198/13/176 50/13/176
f 46/71/177 197/73/177 366/73/177 204/73/177
f 197/73/178 45/71/178 203/73/178 366/73/178
f 366/73/179 203/73/179 51/71/179 201/73/179
f 204/73/180 366/73/180 201/73/180 52/71/180
f 39/131/181 181/131/181 367/131/181 179/131/181
f 181/131/182 38/131/182 180/131/182 367/131/182
f 367/131/183 180/131/183 40/131/183 182/131/183
f 179/131/184 367/131/184 182/131/184 37/131/184
f 55/71/185 210/73/185 368/73/185 207/73/185
f 210/73/186 56/71/186 208/73/186 368/73/186
f 368/73/187 208/73/187 53/129/187 206/73/187
f 207/73/188 368/73/188 206/73/188 54/71/188
f 57/129/189 213/73/189 369/73/189 209/73/189
f 213/73/190 59/129/190 212/73/190 369/73/190
f 369/73/191 212/73/191 56/71/191 210/73/191
f 209/73/192 369/73/192 210/73/192 55/71/192
f 55/71/193 207/73/193 370/73/193 211/73/193
f 207/73/194 54/71/194 214/73/194 370/73/194
f 370/73/195 214/73/195 60/71/195 215/73/195
f 211/73/196 370/73/196 215/73/196 58/71/196
f 46/13/197 158/95/197 371/83/197 149/65/197
f 158/95/198 23/79/198 219/88/198 371/83/198
f 371/83/199 219/88/199 55/13/199 211/65/199
f 149/65/200 371/83/200 211/65/200 58/65/200
f 42/131/201 189/131/201 372/131/201 218/131/201
f 189/131/202 43/131/202 217/131/202 372/131/202
f 372/131/203 217/131/203 59/131/203 213/131/203
f 218/131/204 372/131/204 213/131/204 57/131/204
f 18/13/205 139/95/205 373/83/205 221/65/205
f 139/95/206 20/79/206 220/88/206 373/83/206
f 373/83/207 220/88/207 54/13/207 206/65/207
f 221/65/208 373/83/208 206/65/208 53/65/208
f 20/79/209 190/80/209 374/83/209 220/88/209
f 190/80/210 45/13/210 143/65/210 374/83/210
f 374/83/211 143/65/211 60/65/211 214/65/211
f 220/88/212 374/83/212 214/65/212 54/13/212
f 22/92/213 146/59/213 375/90/213 216/93/213
f 146/59/214 18/41/214 221/91/214 375/90/214
f 375/90/215 221/91/215 53/91/215 208/91/215
f 216/93/216 375/90/216 208/91/216 56/41/216
f 69/1/217 272/4/217 376/132/217 235/133/217
f 272/4/218 83/4/218 268/4/218 376/132/218
f 376/132/219 268/4/219 82/1/219 271/134/219
f 235/133/220 376/132/220 271/134/220 68/1/220
f 7/7/221 229/135/221 377/136/221 119/8/221
f 229/135/222 61/82/222 223/81/222 377/136/222
f 377/136/223 223/81/223 62/65/223 227/124/223
f 119/8/224 377/136/224 227/124/224 8/137/224
f 6/16/225 173/19/225 378/138/225 228/20/225
f 173/19/226 36/16/226 277/20/226 378/138/226
f 378/138/227 277/20/227 86/4/227 230/4/227
f 228/20/228 378/138/228 230/4/228 64/4/228
f 63/47/229 222/49/229 379/139/229 226/140/229
f 222/49/230 61/87/230 229/141/230 379/139/230
f 379/139/231 229/141/231 7/27/231 118/142/231
f 226/140/232 379/139/232 118/142/232 5/25/232
f 63/143/233 226/33/233 380/144/233 225/145/233
f 226/33/234 5/36/234 120/35/234 380/144/234
f 380/144/235 120/35/235 6/146/235 228/147/235
f 225/145/236 380/144/236 228/147/236 64/4/236
f 66/61/237 231/40/237 381/148/237 232/62/237
f 231/40/238 65/143/238 234/145/238 381/148/238
f 381/148/239 234/145/239 68/4/239 233/108/239
f 232/62/240 381/148/240 233/108/240 67/91/240
f 72/21/241 242/47/241 382/46/241 245/149/241
f 242/47/242 65/47/242 231/49/242 382/46/242
f 382/46/243 231/49/243 66/29/243 237/48/243
f 245/149/244 382/46/244 237/48/244 71/29/244
f 69/1/245 235/150/245 383/151/245 244/50/245
f 235/150/246 68/1/246 234/145/246 383/151/246
f 383/151/247 234/145/247 65/143/247 242/53/247
f 244/50/248 383/151/248 242/53/248 72/30/248
f 78/56/249 256/59/249 384/58/249 262/152/249
f 256/59/250 74/41/250 247/62/250 384/58/250
f 384/58/251 247/62/251 73/61/251 251/60/251
f 262/152/252 384/58/252 251/60/252 77/37/252
f 61/82/253 241/64/253 385/66/253 223/81/253
f 241/64/254 71/15/254 243/66/254 385/66/254
f 385/66/255 243/66/255 70/13/255 236/65/255
f 223/81/256 385/66/256 236/65/256 62/65/256
f 64/4/257 239/4/257 386/153/257 225/145/257
f 239/4/258 69/1/258 244/50/258 386/153/258
f 386/153/259 244/50/259 72/30/259 238/53/259
f 225/145/260 386/153/260 238/53/260 63/143/260
f 63/47/261 238/47/261 387/154/261 222/155/261
f 238/47/262 72/21/262 245/149/262 387/154/262
f 387/154/263 245/149/263 71/29/263 241/70/263
f 222/155/264 387/154/264 241/70/264 61/87/264
f 62/71/265 236/73/265 388/72/265 224/72/265
f 236/73/266 70/71/266 246/76/266 388/72/266
f 388/72/267 246/76/267 69/74/267 239/75/267
f 224/72/268 388/72/268 239/75/268 64/74/268
f 75/15/269 248/64/269 389/78/269 250/77/269
f 248/64/270 73/82/270 247/81/270 389/78/270
f 389/78/271 247/81/271 74/13/271 249/80/271
f 250/77/272 389/78/272 249/80/272 76/79/272
f 95/13/273 304/65/273 390/83/273 263/80/273
f 304/65/274 99/65/274 301/65/274 390/83/274
f 390/83/275 301/65/275 50/65/275 202/85/275
f 263/80/276 390/83/276 202/85/276 25/84/276
f 77/29/277 251/70/277 391/86/277 260/86/277
f 251/70/278 73/87/278 248/70/278 391/86/278
f 391/86/279 248/70/279 75/29/279 258/86/279
f 260/86/280 391/86/280 258/86/280 80/29/280
f 79/79/281 319/88/281 392/83/281 257/80/281
f 319/88/282 103/13/282 309/65/282 392/83/282
f 392/83/283 309/65/283 105/65/283 318/65/283
f 257/80/284 392/83/284 318/65/284 92/13/284
f 93/41/285 317/91/285 393/90/285 287/89/285
f 317/91/286 107/91/286 312/91/286 393/90/286
f 393/90/287 312/91/287 104/41/287 316/93/287
f 287/89/288 393/90/288 316/93/288 78/92/288
f 91/29/289 255/70/289 394/86/289 291/86/289
f 255/70/290 77/29/290 260/86/290 394/86/290
f 394/86/291 260/86/291 80/29/291 288/70/291
f 291/86/292 394/86/292 288/70/292 94/29/292
f 94/82/293 288/64/293 395/94/293 290/81/293
f 288/64/294 80/15/294 261/77/294 395/94/294
f 395/94/295 261/77/295 79/79/295 257/95/295
f 290/81/296 395/94/296 257/95/296 92/13/296
f 93/41/297 287/59/297 396/58/297 289/62/297
f 287/59/298 78/56/298 262/152/298 396/58/298
f 396/58/299 262/152/299 77/37/299 255/60/299
f 289/62/300 396/58/300 255/60/300 91/61/300
f 98/29/301 296/70/301 397/86/301 299/86/301
f 296/70/302 26/29/302 155/29/302 397/86/302
f 397/86/303 155/29/303 28/29/303 265/70/303
f 299/86/304 397/86/304 265/70/304 97/29/304
f 95/13/305 263/80/305 398/78/305 298/99/305
f 263/80/306 25/84/306 153/96/306 398/78/306
f 398/78/307 153/96/307 26/82/307 296/64/307
f 298/99/308 398/78/308 296/64/308 98/15/308
f 97/15/309 265/64/309 399/78/309 297/156/309
f 265/64/310 28/82/310 156/96/310 399/78/310
f 399/78/311 156/96/311 27/84/311 294/80/311
f 297/156/312 399/78/312 294/80/312 96/13/312
f 84/157/313 269/158/313 400/102/313 270/101/313
f 269/158/314 81/71/314 267/104/314 400/102/314
f 400/102/315 267/104/315 82/75/315 268/75/315
f 270/101/316 400/102/316 268/75/316 83/74/316
f 70/71/317 273/158/317 401/102/317 246/76/317
f 273/158/318 84/157/318 270/101/318 401/102/318
f 401/102/319 270/101/319 83/74/319 272/75/319
f 246/76/320 401/102/320 272/75/320 69/74/320
f 68/1/321 271/134/321 402/159/321 233/108/321
f 271/134/322 82/1/322 267/108/322 402/159/322
f 402/159/323 267/108/323 81/91/323 274/91/323
f 233/108/324 402/159/324 274/91/324 67/91/324
f 67/71/325 274/73/325 403/110/325 240/109/325
f 274/73/326 81/71/326 269/105/326 403/110/326
f 403/110/327 269/105/327 84/157/327 273/158/327
f 240/109/328 403/110/328 273/158/328 70/71/328
f 36/112/329 172/115/329 404/160/329 277/113/329
f 172/115/330 35/118/330 276/117/330 404/160/330
f 404/160/331 276/117/331 85/129/331 275/161/331
f 277/113/332 404/160/332 275/161/332 86/75/332
f 64/74/333 230/75/333 405/72/333 224/72/333
f 230/75/334 86/75/334 275/161/334 405/72/334
f 405/72/335 275/161/335 85/129/335 278/73/335
f 224/72/336 405/72/336 278/73/336 62/71/336
f 62/65/337 278/65/337 406/162/337 227/124/337
f 278/65/338 85/65/338 276/124/338 406/162/338
f 406/162/339 276/124/339 35/11/339 175/163/339
f 227/124/340 406/162/340 175/163/340 8/11/340
f 67/91/341 252/91/341 407/164/341 232/62/341
f 252/91/342 87/91/342 282/62/342 407/164/342
f 407/164/343 282/62/343 89/61/343 280/60/343
f 232/62/344 407/164/344 280/60/344 66/61/344
f 71/15/345 254/64/345 408/66/345 243/66/345
f 254/64/346 88/82/346 283/81/346 408/66/346
f 408/66/347 283/81/347 90/65/347 281/65/347
f 243/66/348 408/66/348 281/65/348 70/13/348
f 66/29/349 280/70/349 409/127/349 237/48/349
f 280/70/350 89/29/350 284/29/350 409/127/350
f 409/127/351 284/29/351 88/29/351 254/70/351
f 237/48/352 409/127/352 254/70/352 71/29/352
f 70/71/353 281/73/353 410/73/353 240/128/353
f 281/73/354 90/129/354 285/73/354 410/73/354
f 410/73/355 285/73/355 87/129/355 252/73/355
f 240/128/356 410/73/356 252/73/356 67/71/356
f 89/29/357 286/70/357 411/86/357 284/29/357
f 286/70/358 91/29/358 291/86/358 411/86/358
f 411/86/359 291/86/359 94/29/359 279/70/359
f 284/29/360 411/86/360 279/70/360 88/29/360
f 80/15/361 295/64/361 412/78/361 261/77/361
f 295/64/362 97/15/362 297/156/362 412/78/362
f 412/78/363 297/156/363 96/13/363 264/80/363
f 261/77/364 412/78/364 264/80/364 79/79/364
f 76/98/365 293/80/365 413/78/365 250/165/365
f 293/80/366 95/13/366 298/99/366 413/78/366
f 413/78/367 298/99/367 98/15/367 266/64/367
f 250/165/368 413/78/368 266/64/368 75/15/368
f 75/29/369 266/70/369 414/86/369 258/86/369
f 266/70/370 98/29/370 299/86/370 414/86/370
f 414/86/371 299/86/371 97/29/371 295/70/371
f 258/86/372 414/86/372 295/70/372 80/29/372
f 95/71/373 253/73/373 415/73/373 300/73/373
f 253/73/374 108/71/374 315/73/374 415/73/374
f 415/73/375 315/73/375 106/71/375 259/73/375
f 300/73/376 415/73/376 259/73/376 96/71/376
f 100/71/377 302/73/377 416/73/377 303/73/377
f 302/73/378 49/71/378 198/71/378 416/73/378
f 416/73/379 198/71/379 50/71/379 301/73/379
f 303/73/380 416/73/380 301/73/380 99/71/380
f 27/84/381 205/85/381 417/83/381 294/80/381
f 205/85/382 49/65/382 302/65/382 417/83/382
f 417/83/383 302/65/383 100/65/383 305/65/383
f 294/80/384 417/83/384 305/65/384 96/13/384
f 96/71/385 305/73/385 418/73/385 300/73/385
f 305/73/386 100/71/386 303/73/386 418/73/386
f 418/73/387 303/73/387 99/71/387 304/73/387
f 300/73/388 418/73/388 304/73/388 95/71/388
f 89/131/389 282/131/389 419/131/389 284/131/389
f 282/131/390 87/131/390 285/131/390 419/131/390
f 419/131/391 285/131/391 90/131/391 283/131/391
f 284/131/392 419/131/392 283/131/392 88/131/392
f 103/71/393 307/73/393 420/73/393 310/73/393
f 307/73/394 102/71/394 306/73/394 420/73/394
f 420/73/395 306/73/395 101/129/395 308/73/395
f 310/73/396 420/73/396 308/73/396 104/71/396
f 105/129/397 309/73/397 421/73/397 313/73/397
f 309/73/398 103/71/398 310/73/398 421/73/398
f 421/73/399 310/73/399 104/71/399 312/73/399
f 313/73/400 421/73/400 312/73/400 107/129/400
f 103/71/401 311/73/401 422/73/401 307/73/401
f 311/73/402 106/71/402 315/73/402 422/73/402
f 422/73/403 315/73/403 108/71/403 314/73/403
f 307/73/404 422/73/404 314/73/404 102/71/404
f 96/13/405 259/65/405 423/83/405 264/95/405
f 259/65/406 106/65/406 311/65/406 423/83/406
f 423/83/407 311/65/407 103/13/407 319/88/407
f 264/95/408 423/83/408 319/88/408 79/79/408
f 92/131/409 318/131/409 424/131/409 292/131/409
f 318/131/410 105/131/410 313/131/410 424/131/410
f 424/131/411 313/131/411 107/131/411 317/131/411
f 292/131/412 424/131/412 317/131/412 93/131/412
f 74/13/413 321/65/413 425/83/413 249/95/413
f 321/65/414 101/65/414 306/65/414 425/83/414
f 425/83/415 306/65/415 102/13/415 320/88/415
f 249/95/416 425/83/416 320/88/416 76/79/416
f 76/79/417 320/88/417 426/83/417 293/80/417
f 320/88/418 102/13/418 314/65/418 426/83/418
f 426/83/419 314/65/419 108/65/419 253/65/419
f 293/80/420 426/83/420 253/65/420 95/13/420
f 78/92/421 316/93/421 427/90/421 256/59/421
f 316/93/422 104/41/422 308/91/422 427/90/422
f 427/90/423 308/91/423 101/91/423 321/91/423
f 256/59/424 427/90/424 321/91/424 74/41/424
