# Made in Blockbench 5.0.7
mtllib Tree.mtl

o mesh
v 0.0625 1.75 0.0625
v 0.0625 1.75 -0.0625
v 0.0625 0 0.0625
v 0.0625 0 -0.0625
v -0.0625 1.75 0.0625
v -0.0625 1.75 -0.0625
v -0.0625 0 0.0625
v -0.0625 0 -0.0625
vt 0.0625 1
vt 0 1
vt 0 0.125
vt 0.0625 0.125
vt 0.15625 0.125
vt 0.15625 1
vt 0.09375 1
vt 0.09375 0.125
vt 0.375 0.9375
vt 0.4375 0.9375
vt 0.4375 1
vt 0.375 1
vt 0.4375 0.84375
vt 0.4375 0.90625
vt 0.375 0.90625
vt 0.375 0.84375
vt 0.25 0.125
vt 0.25 1
vt 0.1875 1
vt 0.1875 0.125
vt 0.34375 1
vt 0.28125 1
vt 0.28125 0.125
vt 0.34375 0.125
vn 1 0 0
vn -1 0 0
vn 0 1 0
vn 0 -1 0
vn 0 0 1
vn 0 0 -1
usemtl m_af6b6bc8-d7d2-19be-7f45-9b07d1d3b450
f 2/1/1 1/2/1 3/3/1 4/4/1
f 7/5/2 5/6/2 6/7/2 8/8/2
f 5/9/3 1/10/3 2/11/3 6/12/3
f 4/13/4 3/14/4 7/15/4 8/16/4
f 3/17/5 1/18/5 5/19/5 7/20/5
f 6/21/6 2/22/6 4/23/6 8/24/6
o cone
v 0 2.375 0
v 0.2589745962155613 1.25 0.31249999999999994
v 0.31249999999999994 1.4375 0.1964745962155613
v 0.31249999999999994 1.4375 -0.3214745962155614
v 0.2589745962155615 1.3125 -0.3749999999999999
v -0.2589745962155611 1.3125 -0.375
v -0.31249999999999994 1.3125 -0.2589745962155613
v -0.3125 1.3125 0.25897459621556107
v -0.2589745962155613 1.25 0.31249999999999994
vt 0.2665570933182553 0.5302604504392984
vt 0.3896929066817447 0.490203189879421
vt 0.3896929066817447 0.75
vt 0.16017369441211451 1
vt 0.18917959559235364 0.8738030493515306
vt 0.4492013055878855 1
vt 0.13226940837799217 0.6201396594524385
vt 0.25835559162200783 0.5906559851358526
vt 0.2583555916220078 0.875
vt 0.007104857736978359 0.7290451347507079
vt 0.13352014226302164 0.7010060817272992
vt 0.13352014226302159 1
vn 0.948683298050514 0.31622776601683794 0
vn 2.0212978331497305e-16 0.3328201177351374 -0.9429903335828895
vn -0.9593655015712708 0.2821663239915502 -1.0281989859624373e-16
vn 0 0.2676438637860946 0.9635179096299408
usemtl m_d6814991-6f8b-262e-5449-9939ed871658
f 11/25/7 12/26/7 9/27/7
f 13/28/8 14/29/8 9/30/8
f 15/31/9 16/32/9 9/33/9
f 17/34/10 10/35/10 9/36/10
o cone
v -0.004865922579512962 2.228125 0.006949257632892903
v 0.08662357466061549 0.584375 0.4993703478001828
v 0.1500388545494261 0.8062499999999997 0.4483244891315835
v 0.4836198622102319 0.8062499999999997 -0.09057856204622236
v 0.5294024149757329 0.6166666666666664 -0.13298337042343664
v 0.07422495261132517 0.6791666666666664 -0.4880673505682445
v -0.04770141787450838 0.6166666666666664 -0.5052182449125822
v -0.5249157455095433 0.6166666666666664 -0.002204054954593082
v -0.4988816382879298 0.709375 0.08939518403253005
vt 0.140625 0.620096875
vt 0.2544875 0.588846875
vt 0.25224375 0.875
vt 0 0.729471875
vt 0.12948749999999998 0.698221875
vt 0.12724375 0.984375
vt 0.25151509001989253 0.5370235515717501
vt 0.3787200463084315 0.488435910787945
vt 0.376496113671676 0.7303592876403049
vt 0.169289991916255 1
vt 0.19546409338593018 0.8688461242912094
vt 0.47010216469781474 1
vn 0.8237171352384688 0.2480151457015465 0.5098809357263424
vn 0.6151599356640884 0.26832686327278005 -0.741335921158516
vn -0.7057486309116489 0.23156233520821773 -0.6695504125002467
vn -0.5285416394638152 0.21648252055606856 0.8208404556590724
usemtl m_d6814991-6f8b-262e-5449-9939ed871658
f 20/37/11 21/38/11 18/39/11
f 22/40/12 23/41/12 18/42/12
f 24/43/13 25/44/13 18/45/13
f 26/46/14 19/47/14 18/48/14
o cone
v -0.015523032853225626 1.540625 -0.004894393458350699
v -0.5098170635455976 0.2718750000000001 0.2139838187031975
v -0.430438437618645 0.4431321292775663 0.2627799186266264
v 0.21070195492873095 0.4431321292775663 0.46493070789821
v 0.341200809090504 0.2967997465145753 0.48230872325972957
v 0.5474052884836316 0.34504119138149547 -0.05718097492163457
v 0.5187887266651803 0.2967997465145753 -0.18124163097091767
v -0.2064138530906954 0.2967997465145753 -0.5172602231043153
v -0.29488161364821897 0.3683578897338404 -0.4677043370349278
vt 0.17134019211373064 1
vt 0.1875459350952134 0.8622346584174884
vt 0.46034512279105594 1
vt 0.0023644078178583355 0.72370010176188
vt 0.12986209278177166 0.7074943587803973
vt 0.14012974940037 0.9964992894577226
vt 0.12405515252109295 0.6177060587154495
vt 0.26588905090641457 0.5813807828047577
vt 0.2574120465724925 0.8692319084797928
vt 0.26548521032531675 0.5387142875558145
vt 0.3920456751653906 0.4878790379857002
vt 0.3804503645092927 0.7448504244584853
vn -0.28415065611663254 0.3272271374407861 0.9012107440276088
vn 0.8502479402275528 0.38461389098503285 0.359375284347932
vn 0.40164305974473125 0.2954325920094443 -0.8668347225033568
vn -0.9170205009255349 0.3150762957098373 -0.24454105741991128
usemtl m_d6814991-6f8b-262e-5449-9939ed871658
f 29/49/15 30/50/15 27/51/15
f 31/52/16 32/53/16 27/54/16
f 33/55/17 34/56/17 27/57/17
f 35/58/18 28/59/18 27/60/18